<svg width="65" height="65" viewBox="0 0 65 65" fill="none" xmlns="http://www.w3.org/2000/svg">
<path d="M41.6609 38.7508C39.1106 36.6212 35.8959 35.4504 32.5734 35.4412C29.2508 35.4321 26.0297 36.5851 23.4677 38.7007V38.7508M50.3452 28.8789C45.3297 24.7412 39.0304 22.4782 32.5284 22.4782C26.0264 22.4782 19.7272 24.7412 14.7117 28.8789M58.9062 18.5168C51.4811 12.3661 42.1418 9.00037 32.5 9.00037C22.8582 9.00037 13.5189 12.3661 6.09375 18.5168M32.5284 44.5805C31.3993 44.5805 30.2955 44.9153 29.3566 45.5427C28.4177 46.17 27.686 47.0616 27.2539 48.1049C26.8217 49.1481 26.7087 50.296 26.929 51.4035C27.1493 52.5109 27.693 53.5282 28.4914 54.3267C29.2899 55.1251 30.3072 55.6688 31.4146 55.8891C32.5221 56.1094 33.67 55.9964 34.7132 55.5642C35.7565 55.1321 36.6481 54.4004 37.2754 53.4615C37.9028 52.5226 38.2376 51.4188 38.2376 50.2897C38.2376 49.5399 38.0899 48.7975 37.803 48.1049C37.5161 47.4122 37.0956 46.7828 36.5654 46.2527C36.0353 45.7225 35.4059 45.302 34.7132 45.0151C34.0206 44.7282 33.2782 44.5805 32.5284 44.5805Z" stroke="#1F311F" stroke-width="2" stroke-linecap="round" stroke-linejoin="round"/>
</svg>
