<svg width="52" height="52" viewBox="0 0 52 52" fill="none" xmlns="http://www.w3.org/2000/svg">
<path d="M34.9375 13.8124C34.9375 14.1338 34.8422 14.448 34.6636 14.7152C34.4851 14.9825 34.2313 15.1908 33.9343 15.3138C33.6374 15.4367 33.3107 15.4689 32.9955 15.4062C32.6802 15.3435 32.3907 15.1888 32.1634 14.9615C31.9362 14.7342 31.7814 14.4447 31.7187 14.1295C31.656 13.8142 31.6882 13.4875 31.8112 13.1906C31.9342 12.8937 32.1424 12.6399 32.4097 12.4613C32.6769 12.2828 32.9911 12.1874 33.3125 12.1874C33.7435 12.1874 34.1568 12.3587 34.4615 12.6634C34.7663 12.9681 34.9375 13.3815 34.9375 13.8124ZM23.7514 27.1049L15.6264 36.8549C15.4886 37.0204 15.4221 37.2338 15.4416 37.4482C15.461 37.6626 15.5647 37.8605 15.73 37.9985C15.8753 38.1213 16.0597 38.1883 16.25 38.1874C16.369 38.1873 16.4865 38.1611 16.5943 38.1105C16.7021 38.06 16.7974 37.9864 16.8736 37.8949L24.9986 28.1449C25.1273 27.9786 25.1864 27.7688 25.1636 27.5597C25.1408 27.3506 25.0378 27.1585 24.8763 27.0238C24.7147 26.8891 24.5072 26.8223 24.2975 26.8374C24.0877 26.8526 23.8919 26.9485 23.7514 27.1049ZM47.9375 16.2499C47.9376 16.3837 47.9046 16.5155 47.8415 16.6335C47.7785 16.7515 47.6872 16.8521 47.5759 16.9264L43.0625 19.9346V24.3749C43.0566 29.7603 40.9146 34.9235 37.1066 38.7315C33.2985 42.5396 28.1354 44.6815 22.75 44.6874H1.62498C1.47195 44.6874 1.32206 44.644 1.19256 44.5625C1.06306 44.481 0.959223 44.3645 0.893001 44.2265C0.82678 44.0886 0.800866 43.9347 0.818245 43.7827C0.835623 43.6306 0.895586 43.4866 0.991231 43.3671L20.3125 19.2156V15.4374C20.3109 12.6969 21.2987 10.0478 23.0944 7.97747C24.8902 5.90714 27.373 4.55473 30.0863 4.16895C32.7996 3.78317 35.561 4.38996 37.8626 5.87774C40.1642 7.36551 41.8513 9.63422 42.6136 12.2667L47.5759 15.5735C47.6872 15.6478 47.7785 15.7484 47.8415 15.8664C47.9046 15.9844 47.9376 16.1161 47.9375 16.2499ZM45.6604 16.2499L41.4598 13.4509C41.2948 13.3386 41.1757 13.1706 41.1247 12.9776C40.5284 10.6809 39.1151 8.68042 37.1496 7.35111C35.1841 6.0218 32.8012 5.4549 30.4476 5.75663C28.0941 6.05837 25.9313 7.20803 24.3647 8.99017C22.798 10.7723 21.9351 13.0646 21.9375 15.4374V19.4999C21.9373 19.6846 21.8743 19.8637 21.7587 20.0078L3.31498 43.0624H22.75C27.7046 43.0571 32.4547 41.0865 35.9581 37.5831C39.4615 34.0796 41.4321 29.3295 41.4375 24.3749V19.4999C41.4374 19.3661 41.4703 19.2344 41.5334 19.1164C41.5965 18.9984 41.6877 18.8978 41.799 18.8235L45.6604 16.2499Z" fill="#2F3A10"/>
</svg>
