<svg width="60" height="60" viewBox="0 0 60 60" fill="none" xmlns="http://www.w3.org/2000/svg">
<path d="M51.518 52.7837C51.4578 52.9733 51.3388 53.1389 51.1783 53.2565C51.0177 53.374 50.824 53.4375 50.625 53.4376C50.5287 53.4377 50.433 53.4227 50.3414 53.3931L30 46.922L9.65859 53.3931C9.56698 53.4227 9.47128 53.4377 9.375 53.4376C9.15156 53.4371 8.93563 53.3569 8.76612 53.2113C8.59661 53.0658 8.48467 52.8644 8.45046 52.6436C8.41625 52.4228 8.46203 52.1971 8.57954 52.007C8.69706 51.817 8.87858 51.6752 9.09141 51.6071L26.9039 45.9376L9.09141 40.2681C8.97015 40.2342 8.85697 40.1763 8.75859 40.0977C8.66021 40.0192 8.57866 39.9216 8.51881 39.8108C8.45895 39.7001 8.42202 39.5784 8.4102 39.4531C8.39839 39.3278 8.41194 39.2013 8.45005 39.0813C8.48815 38.9613 8.55003 38.8503 8.632 38.7547C8.71396 38.6592 8.81433 38.5811 8.92712 38.5252C9.03991 38.4693 9.1628 38.4366 9.28847 38.4292C9.41415 38.4218 9.54002 38.4398 9.65859 38.4821L30 44.9532L50.3414 38.4821C50.46 38.4398 50.5858 38.4218 50.7115 38.4292C50.8372 38.4366 50.9601 38.4693 51.0729 38.5252C51.1857 38.5811 51.286 38.6592 51.368 38.7547C51.45 38.8503 51.5118 38.9613 51.5499 39.0813C51.5881 39.2013 51.6016 39.3278 51.5898 39.4531C51.578 39.5784 51.541 39.7001 51.4812 39.8108C51.4213 39.9216 51.3398 40.0192 51.2414 40.0977C51.143 40.1763 51.0298 40.2342 50.9086 40.2681L33.0961 45.9376L50.9086 51.6071C51.1453 51.6825 51.3425 51.8487 51.4567 52.0693C51.571 52.2899 51.593 52.5468 51.518 52.7837ZM16.875 25.3126C16.875 20.8595 19.0734 16.2071 23.2312 11.8899C25.1182 9.92601 27.2241 8.18495 29.5078 6.70087C29.6558 6.60961 29.8262 6.56128 30 6.56128C30.1738 6.56128 30.3442 6.60961 30.4922 6.70087C32.7758 8.18495 34.8818 9.92601 36.7687 11.8899C40.9266 16.2071 43.125 20.8595 43.125 25.3126C43.1261 28.7359 41.7897 32.0241 39.4009 34.476C37.012 36.928 33.7596 38.3496 30.3375 38.4376H29.6625C26.2404 38.3496 22.988 36.928 20.5991 34.476C18.2103 32.0241 16.8739 28.7359 16.875 25.3126ZM30 36.5626C31.2432 36.5626 32.4355 36.0687 33.3146 35.1897C34.1936 34.3106 34.6875 33.1183 34.6875 31.8751C34.6875 27.7993 31.3195 24.7196 30 23.672C28.6805 24.722 25.3125 27.8017 25.3125 31.8751C25.3125 33.1183 25.8064 34.3106 26.6854 35.1897C27.5645 36.0687 28.7568 36.5626 30 36.5626ZM18.75 25.3126C18.7506 27.2536 19.2534 29.1614 20.2095 30.8506C21.1656 32.5397 22.5425 33.9528 24.2062 34.9524C23.7007 34.0055 23.4366 32.9485 23.4375 31.8751C23.4375 25.8188 29.2336 21.8837 29.4797 21.7196C29.6337 21.6168 29.8148 21.562 30 21.562C30.1852 21.562 30.3663 21.6168 30.5203 21.7196C30.7664 21.8837 36.5625 25.8188 36.5625 31.8751C36.5634 32.9485 36.2993 34.0055 35.7937 34.9524C37.4575 33.9528 38.8344 32.5397 39.7905 30.8506C40.7466 29.1614 41.2494 27.2536 41.25 25.3126C41.25 16.7884 32.2289 10.1345 30 8.62275C27.7734 10.1368 18.75 16.8001 18.75 25.3126Z" fill="#2F3A10"/>
</svg>
