<svg width="40" height="40" viewBox="0 0 40 40" fill="none" xmlns="http://www.w3.org/2000/svg">
<path fill-rule="evenodd" clip-rule="evenodd" d="M26.2083 36.6667V23.7584H30.5416L31.1899 18.7284H26.2066V15.5167C26.2066 14.06 26.6116 13.0667 28.7016 13.0667H31.3649V8.56671C30.0751 8.42945 28.7787 8.36268 27.4816 8.36671C23.6416 8.36671 21.0133 10.7117 21.0133 15.0167V18.7284H16.6666V23.7584H21.0116V36.6667H5.17325C4.15659 36.6667 3.33325 35.8434 3.33325 34.8267V5.17337C3.33325 4.15671 4.15659 3.33337 5.17325 3.33337H34.8266C35.8433 3.33337 36.6666 4.15671 36.6666 5.17337V34.8267C36.6666 35.8434 35.8433 36.6667 34.8266 36.6667H26.2083Z" fill="#1F311F"/>
</svg>
