<svg width="48" height="48" viewBox="0 0 48 48" fill="none" xmlns="http://www.w3.org/2000/svg">
<path d="M15.9583 5.57136L15.9617 5.57479L15.9669 5.58165L15.9875 5.60393C16.0972 5.72716 16.2041 5.8529 16.308 5.98108C16.5223 6.24165 16.8257 6.6205 17.1926 7.10908C18.197 8.45093 19.1236 9.84922 19.968 11.2971C21.6535 14.1659 23.0063 17.2176 24 20.3931C24.9938 17.2176 26.3465 14.1659 28.032 11.2971C28.8764 9.84919 29.8031 8.4509 30.8075 7.10908C31.1937 6.59519 31.5956 6.09325 32.0126 5.60393L32.0332 5.58165L32.0383 5.57479L32.04 5.57308L32.0417 5.57136C32.2153 5.37729 32.4438 5.2405 32.6968 5.17909C32.9498 5.11768 33.2156 5.13455 33.4588 5.22746C33.702 5.32037 33.9113 5.48495 34.059 5.69941C34.2067 5.91388 34.2857 6.16812 34.2857 6.4285V22.4811C35.0349 20.7971 35.9643 19.1992 37.0577 17.7154C37.8299 16.6629 38.7114 15.6952 39.6875 14.8285C40.0387 14.5211 40.4079 14.2349 40.7932 13.9714L40.8686 13.9216L40.8943 13.9062L40.9029 13.9011L40.9063 13.8994H40.908C41.1031 13.7825 41.3257 13.7193 41.5531 13.7164C41.7806 13.7135 42.0047 13.7708 42.2027 13.8827C42.4008 13.9945 42.5657 14.1568 42.6806 14.353C42.7956 14.5493 42.8565 14.7725 42.8572 14.9999V36.4285C42.8572 38.1335 42.1799 39.7686 40.9743 40.9742C39.7687 42.1798 38.1336 42.8571 36.4286 42.8571H11.5715C9.86649 42.8571 8.23136 42.1798 7.02577 40.9742C5.82018 39.7686 5.14288 38.1335 5.14288 36.4285V14.9999C5.1429 14.7724 5.20329 14.5489 5.31791 14.3524C5.43253 14.1558 5.59725 13.9932 5.79527 13.8811C5.99329 13.769 6.21751 13.7115 6.44503 13.7144C6.67255 13.7173 6.89522 13.7805 7.09031 13.8976L7.09374 13.8994L7.09717 13.9011L7.10574 13.9062L7.13145 13.9234C7.24444 13.9927 7.35427 14.0671 7.4606 14.1462C7.67146 14.3005 7.96288 14.5234 8.3126 14.8285C9.01203 15.4405 9.94631 16.3765 10.9423 17.7136C11.8612 18.9479 12.8297 20.5199 13.7143 22.4811V6.4285C13.7143 6.16812 13.7934 5.91388 13.941 5.69941C14.0887 5.48495 14.298 5.32037 14.5413 5.22746C14.7845 5.13455 15.0502 5.11768 15.3032 5.17909C15.5563 5.2405 15.7847 5.37729 15.9583 5.57136ZM7.71431 17.8371V36.4285C7.71431 37.4515 8.12069 38.4326 8.84404 39.1559C9.5674 39.8793 10.5485 40.2856 11.5715 40.2856H36.4286C37.4516 40.2856 38.4327 39.8793 39.156 39.1559C39.8794 38.4326 40.2857 37.4515 40.2857 36.4285V17.8371C39.924 18.2314 39.5315 18.6994 39.12 19.2496C37.3663 21.6051 35.304 25.4896 34.2686 31.5034C34.216 31.8226 34.0449 32.1103 33.7895 32.309C33.5341 32.5077 33.2132 32.6028 32.8908 32.5753C32.5684 32.5479 32.2682 32.3998 32.0501 32.1608C31.8321 31.9217 31.7121 31.6092 31.7143 31.2856V10.2685C31.26 10.9439 30.7629 11.7222 30.2537 12.5948C28.2703 15.9856 26.0983 20.7565 25.272 26.3314C25.2271 26.6366 25.0739 26.9155 24.8403 27.1172C24.6068 27.3188 24.3086 27.4298 24 27.4298C23.6915 27.4298 23.3932 27.3188 23.1597 27.1172C22.9262 26.9155 22.773 26.6366 22.728 26.3314C21.9017 20.7565 19.728 15.9856 17.748 12.5948C17.2849 11.8043 16.7973 11.0285 16.2857 10.2685V31.2856C16.2879 31.6092 16.168 31.9217 15.9499 32.1608C15.7319 32.3998 15.4317 32.5479 15.1092 32.5753C14.7868 32.6028 14.4659 32.5077 14.2105 32.309C13.9551 32.1103 13.7841 31.8226 13.7315 31.5034C12.696 25.4879 10.6337 21.6051 8.88003 19.2496C8.4686 18.7011 8.07603 18.2314 7.71431 17.8388V17.8371Z" fill="#2F3A10"/>
</svg>
