<svg width="66" height="66" viewBox="0 0 66 66" fill="none" xmlns="http://www.w3.org/2000/svg">
<path d="M43.8955 46.1176C45.5877 46.1176 47.0323 46.7162 48.2295 47.9134C49.4285 49.1124 50.028 50.5579 50.028 52.2501C50.028 53.9423 49.4285 55.3879 48.2295 56.5869C47.0323 57.7859 45.5877 58.3854 43.8955 58.3854C42.471 58.3854 41.1913 57.9426 40.0565 57.0571C38.9235 56.1716 38.236 55.0276 37.994 53.6251H18.095L15.4495 57.7831C15.2478 58.1058 14.9545 58.3038 14.5695 58.3771C14.1845 58.4504 13.8297 58.3863 13.5052 58.1846C13.1807 57.9829 12.9818 57.6896 12.9085 57.3046C12.8352 56.9178 12.8993 56.5621 13.101 56.2376L25.1267 37.6971C22.8754 36.8959 20.7762 35.597 18.8292 33.8004C16.8841 32.0037 15.5687 29.9302 14.883 27.5799C14.6868 26.8612 14.8106 26.2104 15.2542 25.6274C15.6997 25.0425 16.3002 24.7501 17.0555 24.7501H43.4967C44.2521 24.7501 44.8433 25.0416 45.2705 25.6246C45.6958 26.2094 45.8104 26.8603 45.6142 27.5771C44.9286 29.9659 43.6306 32.0495 41.7202 33.8279C39.8099 35.6062 37.7107 36.8959 35.4227 37.6971L40.0152 44.9846C39.5129 45.2669 39.1114 45.5227 38.8107 45.7519C38.5082 45.981 38.1663 46.2964 37.785 46.6979L32.604 38.3626C32.307 38.4543 31.944 38.5001 31.515 38.5001H29.04C28.644 38.5001 28.2984 38.4543 28.0032 38.3626L19.8742 50.8751H37.9912C38.2351 49.4726 38.9235 48.3286 40.0565 47.4431C41.1913 46.5576 42.471 46.1149 43.8955 46.1149V46.1176ZM43.8955 55.6326C44.8488 55.6326 45.6518 55.3081 46.3045 54.6591C46.9535 54.0083 47.278 53.2053 47.278 52.2501C47.278 51.2949 46.9535 50.4919 46.3045 49.8411C45.6536 49.1903 44.8507 48.8649 43.8955 48.8649C42.9385 48.8649 42.1355 49.1903 41.4865 49.8411C40.8357 50.4919 40.5102 51.2949 40.5102 52.2501C40.5102 53.2053 40.8357 54.0083 41.4865 54.6591C42.1355 55.3099 42.9385 55.6354 43.8955 55.6354V55.6326ZM30.25 35.8051C33.0697 35.8051 35.6052 35.0305 37.8565 33.4814C40.1078 31.934 41.789 29.9403 42.9 27.5001H17.6C18.722 29.9384 20.4059 31.9322 22.6517 33.4814C24.8976 35.0305 27.4303 35.8042 30.25 35.8024V35.8051ZM22.0055 13.6676C21.1548 12.5988 20.5782 11.5996 20.2757 10.6701C19.9732 9.74244 19.8972 8.69377 20.0475 7.52411C20.0842 7.32244 20.1722 7.14552 20.3115 6.99336C20.4508 6.84119 20.6204 6.76602 20.8202 6.76786C21.0109 6.76786 21.1594 6.84302 21.2657 6.99336C21.3702 7.14552 21.4225 7.31694 21.4225 7.50761C21.3418 8.52877 21.4381 9.46194 21.7112 10.3071C21.9862 11.1504 22.5124 12.0359 23.2897 12.9636C24.1404 14.0434 24.7197 15.0481 25.0277 15.9776C25.3357 16.9053 25.4091 17.9549 25.2477 19.1264C25.2019 19.328 25.1121 19.504 24.9782 19.6544C24.8444 19.8047 24.6767 19.8808 24.475 19.8826C24.2843 19.8826 24.1358 19.8065 24.0295 19.6544C23.925 19.5022 23.8727 19.3317 23.8727 19.1429C23.9534 18.1199 23.8572 17.183 23.584 16.3324C23.309 15.4835 22.7828 14.5953 22.0055 13.6676ZM28.842 13.6676C27.9932 12.6098 27.4147 11.617 27.1067 10.6894C26.7969 9.75986 26.7181 8.70477 26.8702 7.52411C26.9069 7.32244 26.994 7.14552 27.1315 6.99336C27.2708 6.84302 27.4413 6.76786 27.643 6.76786C27.8337 6.76786 27.9812 6.84302 28.0857 6.99336C28.1921 7.14552 28.2452 7.31694 28.2452 7.50761C28.1646 8.52877 28.2608 9.46194 28.534 10.3071C28.8072 11.1504 29.3333 12.0359 30.1125 12.9636C30.9613 14.0324 31.5407 15.0316 31.8505 15.9611C32.1585 16.8906 32.2318 17.9512 32.0705 19.1429C32.0247 19.3445 31.9339 19.5178 31.7982 19.6626C31.6644 19.8093 31.4976 19.8826 31.2977 19.8826C31.1071 19.8826 30.9586 19.8065 30.8522 19.6544C30.7459 19.5022 30.6937 19.3317 30.6955 19.1429C30.7762 18.1199 30.6827 17.183 30.415 16.3324C30.1455 15.4835 29.6212 14.5953 28.842 13.6676ZM35.772 13.6676C34.9213 12.6098 34.342 11.6161 34.034 10.6866C33.726 9.75894 33.6472 8.70477 33.7975 7.52411C33.8342 7.32244 33.9222 7.14552 34.0615 6.99336C34.2008 6.84119 34.3704 6.76602 34.5702 6.76786C34.7609 6.76786 34.9094 6.84302 35.0157 6.99336C35.1202 7.14552 35.1725 7.31694 35.1725 7.50761C35.0918 8.52877 35.1881 9.46194 35.4612 10.3071C35.7362 11.1504 36.2624 12.0359 37.0397 12.9636C37.8904 14.0324 38.4697 15.0316 38.7777 15.9611C39.0857 16.8906 39.1591 17.9512 38.9977 19.1429C38.9519 19.3445 38.8621 19.5178 38.7282 19.6626C38.5944 19.8093 38.4266 19.8826 38.225 19.8826C38.0343 19.8826 37.8858 19.8065 37.7795 19.6544C37.675 19.5022 37.6227 19.3317 37.6227 19.1429C37.7034 18.1199 37.6099 17.183 37.3422 16.3324C37.0746 15.4835 36.5512 14.5953 35.772 13.6676Z" fill="#2F3A10"/>
</svg>
