<svg width="58" height="58" viewBox="0 0 58 58" fill="none" xmlns="http://www.w3.org/2000/svg">
<g clip-path="url(#clip0_1_643)">
<path d="M25.375 54.75H0V6.41667C0 6.41667 4.83333 4 12.6875 4C20.5417 4 25.375 6.41667 25.375 6.41667V54.75ZM25.375 54.75V30.5833H25.9792C25.9792 30.5833 30.2083 33 38.0625 33C45.9167 33 50.1458 30.5833 50.1458 30.5833H50.75V54.75H25.375ZM0 23.3333C0 23.3333 4.83333 20.9167 12.6875 20.9167C20.5417 20.9167 25.375 23.3333 25.375 23.3333M6.04167 11.25V16.0833M6.04167 26.9583V31.7917M41.0833 32.8768V23.9375C41.0833 23.1363 40.7651 22.368 40.1986 21.8014C39.632 21.2349 38.8637 20.9167 38.0625 20.9167C37.2613 20.9167 36.493 21.2349 35.9264 21.8014C35.3599 22.368 35.0417 23.1363 35.0417 23.9375V24.5417" stroke="#1F311F" stroke-width="2"/>
</g>
<defs>
<clipPath id="clip0_1_643">
<rect width="58" height="58" fill="white"/>
</clipPath>
</defs>
</svg>
