<svg width="63" height="63" viewBox="0 0 63 63" fill="none" xmlns="http://www.w3.org/2000/svg">
<path d="M32.6812 24.8063C33.1433 24.8051 33.586 24.621 33.9127 24.2943C34.2394 23.9676 34.4235 23.5248 34.4248 23.0628V21.3146C34.4248 20.3617 33.642 19.571 32.6812 19.571C31.7205 19.571 30.9346 20.3617 30.9346 21.3146V23.0628C30.9346 24.022 31.7205 24.8063 32.6812 24.8063ZM29.1942 31.7852H30.9346V41.673C30.9346 42.6322 31.7205 43.4165 32.6812 43.4165C33.1433 43.4153 33.586 43.2312 33.9127 42.9045C34.2394 42.5778 34.4235 42.135 34.4248 41.673V30.0401C34.4235 29.578 34.2394 29.1353 33.9127 28.8086C33.586 28.4819 33.1433 28.2978 32.6812 28.2965H29.1942C28.2319 28.2965 27.4475 29.0825 27.4475 30.0401C27.4475 31.0008 28.2319 31.7852 29.1942 31.7852Z" fill="#2F3A10"/>
<path d="M31.5 53.1562C19.5584 53.1562 9.84375 43.4417 9.84375 31.5016C9.84375 19.5599 19.5584 9.84375 31.5 9.84375C43.4417 9.84375 53.1562 19.5599 53.1562 31.5016C53.1562 43.4417 43.4417 53.1562 31.5 53.1562ZM31.5 11.4188C20.4277 11.4188 11.4188 20.4277 11.4188 31.5016C11.4188 42.5738 20.4277 51.5813 31.5 51.5813C42.5723 51.5813 51.5813 42.5738 51.5813 31.5016C51.5813 20.4277 42.5723 11.4188 31.5 11.4188Z" fill="#2F3A10"/>
</svg>
