<svg width="41" height="42" viewBox="0 0 41 42" fill="none" xmlns="http://www.w3.org/2000/svg">
<path d="M13.3251 3.5H27.6751C33.1418 3.5 37.5834 8.05 37.5834 13.65V28.35C37.5834 31.0419 36.5395 33.6236 34.6813 35.5271C32.8232 37.4306 30.3029 38.5 27.6751 38.5H13.3251C7.85842 38.5 3.41675 33.95 3.41675 28.35V13.65C3.41675 10.9581 4.46066 8.37636 6.31883 6.47287C8.177 4.56937 10.6972 3.5 13.3251 3.5ZM12.9834 7C11.3523 7 9.78806 7.66375 8.63471 8.84523C7.48136 10.0267 6.83341 11.6291 6.83341 13.3V28.7C6.83341 32.1825 9.58383 35 12.9834 35H28.0167C29.6478 35 31.2121 34.3363 32.3655 33.1548C33.5188 31.9733 34.1667 30.3709 34.1667 28.7V13.3C34.1667 9.8175 31.4163 7 28.0167 7H12.9834ZM29.4688 9.625C30.0352 9.625 30.5783 9.85547 30.9788 10.2657C31.3793 10.6759 31.6042 11.2323 31.6042 11.8125C31.6042 12.3927 31.3793 12.9491 30.9788 13.3593C30.5783 13.7695 30.0352 14 29.4688 14C28.9025 14 28.3593 13.7695 27.9589 13.3593C27.5584 12.9491 27.3334 12.3927 27.3334 11.8125C27.3334 11.2323 27.5584 10.6759 27.9589 10.2657C28.3593 9.85547 28.9025 9.625 29.4688 9.625ZM20.5001 12.25C22.7655 12.25 24.9381 13.1719 26.54 14.8128C28.1418 16.4538 29.0417 18.6794 29.0417 21C29.0417 23.3206 28.1418 25.5462 26.54 27.1872C24.9381 28.8281 22.7655 29.75 20.5001 29.75C18.2347 29.75 16.0621 28.8281 14.4602 27.1872C12.8583 25.5462 11.9584 23.3206 11.9584 21C11.9584 18.6794 12.8583 16.4538 14.4602 14.8128C16.0621 13.1719 18.2347 12.25 20.5001 12.25ZM20.5001 15.75C19.1408 15.75 17.8373 16.3031 16.8762 17.2877C15.915 18.2723 15.3751 19.6076 15.3751 21C15.3751 22.3924 15.915 23.7277 16.8762 24.7123C17.8373 25.6969 19.1408 26.25 20.5001 26.25C21.8593 26.25 23.1629 25.6969 24.124 24.7123C25.0851 23.7277 25.6251 22.3924 25.6251 21C25.6251 19.6076 25.0851 18.2723 24.124 17.2877C23.1629 16.3031 21.8593 15.75 20.5001 15.75Z" fill="#1F311F"/>
</svg>
