<svg width="108" height="108" viewBox="0 0 108 108" fill="none" xmlns="http://www.w3.org/2000/svg">
<path d="M0.000395286 53.6C0.000395286 24.03 23.9704 0.0200281 53.5304 2.80827e-05C83.0904 -0.0299719 107.13 23.98 107.13 53.52C107.13 83.08 83.2304 107.2 53.6104 107.12C22.7504 107.03 -0.109605 81.94 0.000395286 53.61V53.6ZM46.1304 88.69H46.1004C46.2704 88.97 46.4404 89.25 46.6104 89.53L46.5804 89.51C46.8904 89.93 47.2004 90.35 47.5104 90.77L47.4804 90.73C47.6304 90.89 47.7804 91.06 47.9304 91.22H47.8904C48.6304 91.7 49.3204 92.44 50.1304 92.65C51.7804 93.06 53.5004 93.19 55.1904 93.43C55.1904 91.67 55.1904 89.92 55.1904 88.16C53.9104 86.18 52.6204 84.2 51.3404 82.22C50.7104 81.03 50.0904 79.85 49.4604 78.66C47.5904 74.74 45.7304 70.82 43.8604 66.91C44.5704 72.73 46.8404 77.86 49.8004 82.75C50.1904 83.39 50.0304 84.35 50.1204 85.17C49.0204 83.47 47.9204 81.76 46.8304 80.06L45.9004 78.38L45.9204 78.4C45.2504 77.09 44.5704 75.79 43.9004 74.48L43.2304 74.85C43.9204 76.78 44.6104 78.71 45.3004 80.64L45.2304 80.67C45.4004 81.08 45.5804 81.48 45.7504 81.89L45.6904 81.91C46.0204 82.67 46.3404 83.43 46.6704 84.19C46.8204 84.65 46.9704 85.11 47.1204 85.58C46.7404 85.44 46.1404 85.42 46.0004 85.15C45.0404 83.38 44.1704 81.55 43.2704 79.74C43.1004 79.8 42.9304 79.86 42.7504 79.93L45.6604 87.84V87.9C45.8104 88.17 45.9704 88.44 46.1204 88.71L46.1304 88.69ZM67.7704 82.83C68.0604 83.11 68.3404 83.39 68.6304 83.68V83.73C70.3604 85.54 70.7104 85.65 72.2104 84.67C71.4104 83.93 70.6404 83.22 69.8804 82.51H69.8504C69.0904 81.6 68.3204 80.7 67.5604 79.81C66.8704 78.89 66.1804 77.98 65.4904 77.06C65.2704 76.78 65.0504 76.5 64.8304 76.22L64.7904 76.04C64.3604 75.42 63.9304 74.8 63.5104 74.19C63.1804 73.59 62.8504 72.99 62.5204 72.38C61.8904 70.81 61.2504 69.24 60.6204 67.67L61.2604 67.41C61.6504 67.85 62.0404 68.29 62.4204 68.73C63.5604 70.89 64.5104 73.19 65.8904 75.18C67.8504 78 70.0804 80.66 72.3204 83.27C73.2404 84.35 73.4004 84.22 74.5904 83.19C70.4604 79.54 67.4104 75.1 64.9804 70.2C64.6904 69.62 64.1704 69.15 63.7604 68.63C63.4704 67.68 63.1804 66.72 62.8904 65.77C63.4704 66.26 64.2404 66.64 64.5904 67.25C67.4004 72.19 69.9104 77.33 74.1404 81.31C74.6504 81.79 75.2204 82.21 75.7704 82.65C75.9504 82.5 76.1304 82.34 76.3004 82.19C75.8804 81.46 75.5104 80.7 75.0304 80.01C72.4104 76.2 69.6504 72.48 67.1704 68.58C65.6304 66.16 64.5004 63.49 63.2004 60.93C62.8004 60.14 62.4704 59.21 61.4604 60.38L61.3504 60.44L57.7004 62.3C53.8304 63.52 49.9204 64.37 45.8304 63.54C45.3304 63.44 44.8104 63.4 44.0404 63.29C45.4704 66.54 46.7604 69.49 48.0804 72.44C50.7104 78.31 53.8404 83.89 58.0004 88.84C58.6604 89.63 59.5704 90.21 60.3604 90.89C60.4904 90.75 60.6304 90.6 60.7604 90.46C55.5704 85.08 52.2804 78.59 49.6604 71.67C50.2104 72.05 50.6204 72.54 50.9204 73.08C52.0104 75.05 52.9604 77.11 54.1504 79.02C56.0804 82.13 58.0804 85.2 60.2004 88.19C61.3704 89.83 62.1204 89.93 63.2904 89.11C58.5204 84.48 55.6804 78.68 53.4804 72.5C53.9704 73.31 54.4704 74.12 54.9604 74.93C56.8204 77.94 58.6804 80.95 60.5404 83.97C61.6004 85.34 62.5204 86.84 63.7704 88.02C64.3004 88.52 65.5004 88.32 66.5104 88.45C64.4304 85.68 62.5504 83.42 60.9504 80.97C59.3504 78.52 58.0204 75.88 56.5804 73.32L56.3604 71.76C56.4604 71.73 56.5704 71.71 56.6704 71.68C57.5704 73.12 58.4704 74.57 59.3704 76.01C59.9904 77.1 60.6104 78.2 61.2304 79.29C62.7004 81.39 64.0804 83.55 65.6604 85.56C66.5104 86.63 67.6904 87.45 69.2904 86.25C67.3304 84.06 65.3704 81.87 63.4104 79.69L62.9704 79.17L63.0304 79.2C62.1704 77.65 61.3104 76.09 60.4504 74.54C59.9704 73.42 59.4304 72.32 59.0504 71.17C58.9504 70.86 59.3004 70.41 59.4404 70.02C59.5004 70.15 59.5504 70.29 59.6104 70.42C60.2104 71.44 60.8104 72.47 61.4104 73.49C61.4104 73.49 61.4204 73.62 61.4304 73.62C61.9604 74.57 62.4804 75.52 63.0104 76.47C63.0104 76.55 63.0404 76.61 63.1104 76.66L63.2004 76.79C64.5604 78.62 65.9204 80.44 67.2804 82.27C67.4604 82.47 67.6404 82.67 67.8104 82.87L67.7704 82.83ZM33.5804 82.27C33.6604 81.93 33.7504 81.59 33.8304 81.25C33.7304 81.21 33.6204 81.17 33.5204 81.13C33.3704 81.41 33.2204 81.69 33.0804 81.97C32.7004 82.35 32.0604 82.69 31.9804 83.13C31.7504 84.43 31.8004 85.77 31.6304 87.08C31.3904 88.94 32.0204 90.07 33.9904 90.24C36.1104 90.79 38.2304 91.34 40.5304 91.94C40.4404 91.17 40.3904 90.72 40.3404 90.26C40.3204 89.53 40.3104 88.79 40.2904 88.06C40.2904 86.4 40.2904 84.75 40.2904 83.09C40.2504 82.52 40.2004 81.95 40.1604 81.39C40.2504 79.27 40.3404 77.15 40.4404 75.03C40.6304 72.42 40.8304 69.8 41.0204 67.19C40.8604 67.17 40.6904 67.15 40.5304 67.13C40.3604 68.81 40.1904 70.48 40.0104 72.16C39.6004 75.24 39.2004 78.32 38.7904 81.39C38.4804 80.5 38.1804 79.6 37.7904 78.49C37.4004 79.26 37.0104 80.04 36.4904 81.06C36.2904 80.07 36.1304 79.3 36.0104 78.73C35.3604 79.88 34.6604 81.11 33.9704 82.34C33.8304 82.32 33.6904 82.3 33.5504 82.28L33.5804 82.27ZM26.1904 9.12003C26.1104 9.13003 26.0504 9.17003 26.0104 9.23003C25.3804 9.64003 24.7604 10.05 24.1304 10.46C21.8804 12.32 19.6304 14.18 17.3904 16.04C17.0504 16.37 16.7104 16.69 16.3704 17.02C14.7304 18.96 13.0804 20.89 11.4404 22.83C9.7204 25.61 8.0004 28.38 6.2804 31.16C6.0604 31.59 5.8404 32.02 5.6204 32.45C4.5904 35.93 3.5604 39.4 2.5304 42.88C2.4404 43.27 2.3404 43.67 2.2504 44.06C2.0604 45.24 1.77039 46.41 1.72039 47.59C1.70039 48.03 2.2504 48.49 2.5304 48.94C3.1604 49.34 3.8004 49.74 4.4304 50.14C5.0904 50.51 5.7404 50.89 6.40039 51.26C7.33039 50.4 8.55039 49.71 9.14039 48.66C10.9004 45.48 13.2704 43.07 16.6304 41.64C20.7404 40.47 24.8604 39.34 28.9404 38.11C31.6804 37.28 34.3604 36.29 37.0704 35.38C37.6804 35.22 38.2904 35.09 38.8804 34.9C43.9004 33.27 48.9104 31.58 53.9504 30.01C57.5704 28.88 60.9204 29.59 63.9504 31.87C64.7904 32.51 65.6504 33.12 66.4704 33.8C68.4604 35.46 70.6904 36.31 73.3104 36.01C76.1804 35.68 79.0704 35.43 81.9304 35.02C85.9304 34.45 87.1904 35.07 88.8704 38.71C89.2504 39.54 89.6204 40.37 90.0004 41.2C90.2204 42.64 90.2504 44.14 90.7104 45.5C91.0004 46.36 91.8104 47.46 92.5904 47.66C94.3804 48.1 96.2904 48.08 98.1504 48.19C99.3904 48.26 100.63 48.25 101.86 48.27L102 48.37L102.17 48.35C103.24 49.05 104.31 49.75 105.38 50.45C105.57 50.35 105.76 50.25 105.96 50.15C105.49 48 105.01 45.84 104.54 43.69C104.51 43.42 104.47 43.16 104.44 42.89L104.12 42C104.09 41.73 104.05 41.47 104.02 41.2C104.02 40.72 104.13 40.2 104 39.76C101.05 29.57 95.8904 20.8 87.4704 14.12C87.0804 13.83 86.6904 13.53 86.3004 13.24C86.0104 12.93 85.7304 12.62 85.4404 12.31L85.4604 12.33C81.0304 8.62003 76.0604 5.89003 70.4904 4.30003C70.2204 4.30003 69.9604 4.30003 69.6904 4.30003C65.2504 2.00003 60.3904 1.63003 55.5404 1.42003C47.6104 1.08003 39.9804 2.45003 32.7304 5.75003C31.1404 6.55003 29.5504 7.36003 27.9504 8.16003C27.3704 8.49003 26.7804 8.81003 26.2004 9.14003L26.1904 9.12003ZM36.8404 38.66C36.6504 38.66 36.4704 38.66 36.2804 38.66C35.9404 38.82 35.6004 38.97 35.2704 39.13C34.4104 39.39 33.5604 39.65 32.7004 39.9C32.1104 40.05 31.5204 40.2 30.9304 40.35H30.7504C29.9204 40.45 29.0404 40.41 28.2604 40.65C24.7204 41.74 21.2704 43.14 17.6804 43.98C14.7604 44.66 12.9704 46.3 11.6504 48.78C11.1904 49.64 10.6304 50.48 10.0104 51.23C8.32039 53.27 6.1304 54.44 3.8404 52.45C3.3804 52.05 2.6604 51.95 2.0004 51.69C1.3604 55.58 1.5404 55.93 4.6304 57.43C5.6304 57.92 6.6104 58.48 7.6304 58.92C8.3904 59.25 9.24039 59.69 10.0104 59.63C13.3704 59.35 16.7104 58.89 20.0604 58.54C24.1804 58.11 28.3004 57.64 32.4404 57.37C35.2704 57.19 38.1304 57.34 40.9704 57.34C40.9904 57.61 41.0104 57.88 41.0204 58.15C34.7304 58.81 28.4404 59.44 22.1604 60.14C15.6904 60.86 9.2204 61.66 2.5804 62.45C2.6404 63.49 2.5704 64.34 2.7604 65.12C4.0604 70.6 6.21039 75.77 9.16039 80.54C18.3104 95.39 31.8104 103.68 49.0604 105.37C59.6904 106.41 69.8504 104.23 79.2704 98.66C85.3404 95.07 90.5504 90.71 94.8504 85.23C99.0104 79.93 101.79 73.9 103.79 67.5C104.16 66.31 104.16 65.39 102.56 65.3C97.7804 65.03 93.0104 64.55 88.2304 64.51C81.9204 64.46 75.6004 64.74 69.2904 64.89C67.7204 64.93 67.2804 65.69 68.0004 67.09C68.8604 68.78 70.2204 69.72 72.1304 69.97C73.0304 70.09 73.9004 70.44 74.7804 70.69C74.7404 70.94 74.7104 71.2 74.6704 71.45C74.0004 71.45 73.3304 71.41 72.6604 71.46C72.1504 71.5 71.6504 71.64 71.1504 71.73C71.2504 72.19 71.2304 72.72 71.4704 73.08C72.3504 74.43 73.2104 75.83 74.3004 77.01C74.9304 77.69 75.9604 78.32 76.8404 78.38C79.7304 78.55 82.6404 78.38 85.5304 78.48C87.1304 78.53 88.7204 78.86 90.3204 79.07C90.3204 79.33 90.3204 79.59 90.3104 79.86C86.1504 80.12 82.0004 80.38 77.3104 80.67C79.0004 82.24 79.6704 84.13 81.9504 83.69C82.1404 83.65 82.7304 84.36 82.7004 84.68C82.5804 85.95 82.2904 87.2 82.0504 88.58C80.5904 88.28 79.2104 88 77.8304 87.71C77.8504 87.51 77.8804 87.3 77.9004 87.1C78.6204 86.97 79.3404 86.85 80.0604 86.72C79.5104 84.44 78.7504 83.67 77.4304 84.32C75.1504 85.44 73.0004 86.81 70.8804 88.03C71.5004 90.44 72.9004 89.16 74.2004 88.99C74.1104 90.44 74.0304 91.73 73.9604 93.01C72.5804 92.89 71.2304 92.77 69.3104 92.59C70.3704 92.03 70.8704 91.77 71.6004 91.39C70.6304 90.52 69.8304 89.8 69.0804 89.13C64.9604 91.3034 62.9937 92.8167 63.1804 93.67H65.5704C65.4304 95.13 65.3204 96.2 65.2004 97.38C63.5704 97.19 61.7504 96.97 59.9304 96.75C59.9304 96.55 59.9304 96.36 59.9304 96.16C60.2204 96.03 60.5104 95.91 60.7904 95.77C61.0704 95.62 61.3404 95.45 61.6104 95.29C61.5904 95.06 61.5704 94.84 61.5504 94.61C60.8704 94.61 59.9804 94.33 59.5504 94.66C57.4204 96.27 55.1504 96.22 52.7504 95.59C51.7304 95.32 50.6904 95.14 49.6604 94.92C43.6204 93.59 37.5604 92.31 31.5504 90.87C30.9704 90.73 30.3404 89.68 30.2304 88.97C30.0204 87.64 30.1704 86.26 30.1704 84.9C29.9104 84.78 29.6604 84.66 29.4004 84.54C28.1304 85.78 26.8604 87.01 25.4104 88.43C26.6804 89.27 27.7304 89.97 28.7904 90.67C28.7104 90.83 28.6204 90.99 28.5404 91.16C26.1404 90.27 23.7404 89.38 21.3404 88.49C21.3904 88.31 21.4404 88.13 21.5004 87.95C22.0104 87.99 22.5104 88.03 23.0204 88.07C23.0504 87.4 23.0804 86.81 23.1104 86.21L23.6204 86.63C24.5604 86.05 25.7304 85.67 26.4104 84.87C28.6204 82.24 30.6604 79.45 32.7604 76.73C32.6604 76.44 32.6204 75.95 32.4604 75.9C29.3804 75.02 26.4304 75.78 23.5204 76.77C23.4504 76.8 23.4404 77.03 23.4004 77.16C22.1004 77.42 20.8104 77.68 19.5104 77.93L19.0704 77.41C19.5804 76.95 20.0204 76.3 20.6204 76.06C24.5504 74.51 28.6804 74.22 32.8604 74.12C33.8004 74.1 35.1104 73.52 35.5804 72.78C37.3404 70 38.8304 67.05 40.4004 64.14C41.0204 62.99 41.5604 61.81 42.1204 60.68C49.2104 63.23 59.1004 61.73 61.7804 57.69C60.5704 57.74 59.4904 57.79 58.2004 57.85C58.6004 55.98 60.1204 56 61.2704 56.07C64.6304 56.28 68.0504 56.39 71.3104 57.13C78.7904 58.83 86.3604 60 93.6004 62.92C96.7504 64.19 100.83 63.13 104.49 63.13C104.22 62.57 103.92 62.42 103.61 62.37C98.9004 61.56 94.1704 60.87 89.4904 59.95C81.5804 58.4 73.8204 56.41 66.8604 52.09C64.6504 50.72 62.4804 50.61 60.2604 52.43C56.9304 55.15 52.7504 54.28 48.8804 54.66C48.5104 54.7 48.0804 54.08 47.6804 53.76C48.1004 53.39 48.4804 52.73 48.9304 52.69C50.4704 52.55 52.0404 52.62 53.5904 52.61C55.4304 52.61 57.0904 52.38 58.6704 51.1C61.3404 48.95 64.3804 48.59 67.5404 50.28C69.8704 51.53 72.1804 52.87 74.6104 53.88C83.8704 57.71 93.8304 58.61 103.53 60.59C104.04 60.69 104.64 60.3 105.2 60.14C104.99 59.54 104.94 58.77 104.53 58.37C102.87 56.78 100.77 56.34 98.5404 55.88C95.4404 55.23 92.5004 53.88 89.4904 52.83C89.5304 52.61 89.5704 52.4 89.6104 52.18C90.6104 51.69 91.6104 51.21 93.1804 50.44C89.0404 48.97 88.3604 46.05 88.1404 42.72C88.0504 41.39 87.1804 40.11 86.6104 38.83C85.8504 37.13 84.3304 36.83 82.7104 37C81.3204 37.14 79.9404 37.47 78.5604 37.72C72.9004 38.76 67.7004 38.39 63.2904 33.94C61.6004 32.24 59.2604 30.99 56.5604 31.79C50.8304 33.48 45.1004 35.19 39.4004 36.99C38.8904 37.15 38.6104 38.08 38.2304 38.65C37.9704 38.65 37.7204 38.65 37.4604 38.65C37.2604 38.65 37.0504 38.65 36.8504 38.65L36.8404 38.66ZM64.0004 58.36C64.3704 61.97 66.7904 63.08 69.9604 63.16C72.4304 63.22 74.9204 63.29 77.3804 63.15C81.0104 62.94 84.6304 62.55 88.7504 62.2C80.2104 60.88 72.0704 59.61 64.0004 58.36ZM95.2104 51.95C96.5104 53.67 97.8904 55.38 99.9004 54.31C100.57 53.95 100.22 51.69 100.37 49.88C99.1304 50.58 98.5104 51.03 97.8304 51.29C97.0604 51.58 96.2204 51.7 95.2104 51.95ZM102.02 51.08C101.79 51.34 101.57 51.6 101.34 51.86C102.1 53.39 102.85 54.92 103.68 56.59C105.53 55.06 104.71 53.64 104.18 52.5C103.87 51.84 102.77 51.54 102.02 51.08ZM39.1604 71.21C38.9404 71.17 38.7104 71.14 38.4904 71.1C38.2204 73.09 37.9604 75.08 37.6904 77.07C37.8904 77.1 38.0904 77.13 38.2804 77.17C38.5704 75.19 38.8604 73.2 39.1504 71.22L39.1604 71.21ZM6.5104 60.16C6.5104 60.04 6.5004 59.91 6.4904 59.79H2.6904C2.7004 60.07 2.72039 60.34 2.73039 60.62C3.99039 60.47 5.2404 60.32 6.5004 60.16H6.5104ZM94.6204 50.54C94.4004 50.37 94.2604 50.19 94.1204 50.18C93.9504 50.17 93.7704 50.3 93.5904 50.37C93.7504 50.53 93.8804 50.75 94.0704 50.84C94.1704 50.88 94.3704 50.69 94.6304 50.54H94.6204ZM94.1504 52.78C94.1004 52.9 93.9804 53.04 94.0204 53.12C94.0504 53.2 94.2404 53.23 94.3504 53.28C94.4004 53.16 94.5204 53.02 94.4904 52.94C94.4604 52.86 94.2704 52.83 94.1604 52.78H94.1504Z" fill="#0C0C0A"/>
<path d="M32.7404 76.7201C30.6404 79.4401 28.6104 82.2301 26.3904 84.8601C25.7204 85.6601 24.5504 86.0501 23.6004 86.6201L23.0904 86.2001C23.0604 86.7901 23.0404 87.3901 23.0004 88.0601C22.4904 88.0201 21.9804 87.9801 21.4804 87.9401C21.4304 88.1201 21.3804 88.3001 21.3204 88.4801C23.7204 89.3701 26.1204 90.2601 28.5204 91.1501C28.6004 90.9901 28.6904 90.8301 28.7704 90.6601C27.7104 89.9601 26.6504 89.2601 25.3904 88.4201C26.8504 87.0001 28.1204 85.7601 29.3804 84.5301C29.6404 84.6501 29.8904 84.7701 30.1504 84.8901C30.1504 86.2501 30.0004 87.6301 30.2104 88.9601C30.3204 89.6701 30.9504 90.7201 31.5304 90.8601C37.5504 92.3001 43.6004 93.5901 49.6404 94.9101C50.6704 95.1401 51.7104 95.3201 52.7304 95.5801C55.1304 96.2101 57.4004 96.2701 59.5304 94.6501C59.9604 94.3201 60.8504 94.6001 61.5304 94.6001C61.5504 94.8301 61.5704 95.0501 61.5904 95.2801C61.3204 95.4401 61.0504 95.6101 60.7704 95.7601C60.4904 95.9101 60.2004 96.0201 59.9104 96.1501C59.9104 96.3501 59.9104 96.5401 59.9104 96.7401C61.7304 96.9601 63.5604 97.1801 65.1804 97.3701C65.3004 96.1901 65.4004 95.1201 65.5504 93.6601H63.1604C62.9737 92.8135 64.9404 91.3001 69.0604 89.1201C69.8104 89.7901 70.6104 90.5101 71.5804 91.3801C70.8504 91.7601 70.3504 92.0201 69.2904 92.5801C71.2204 92.7501 72.5604 92.8701 73.9404 93.0001C74.0204 91.7201 74.1004 90.4301 74.1804 88.9801C72.8804 89.1601 71.4804 90.4301 70.8604 88.0201C72.9804 86.8001 75.1304 85.4401 77.4104 84.3101C78.7304 83.6601 79.4904 84.4301 80.0404 86.7101C79.3204 86.8401 78.6004 86.9601 77.8804 87.0901C77.8604 87.2901 77.8304 87.5001 77.8104 87.7001C79.1904 87.9801 80.5704 88.2701 82.0304 88.5701C82.2804 87.1901 82.5704 85.9401 82.6804 84.6701C82.7104 84.3501 82.1304 83.6401 81.9304 83.6801C79.6504 84.1201 78.9804 82.2301 77.2904 80.6601C81.9704 80.3701 86.1304 80.1101 90.2904 79.8501C90.2904 79.5901 90.2904 79.3301 90.3004 79.0601C88.7004 78.8501 87.1104 78.5301 85.5104 78.4701C82.6104 78.3701 79.7104 78.5501 76.8204 78.3701C75.9304 78.3201 74.9004 77.6801 74.2804 77.0001C73.1904 75.8201 72.3304 74.4201 71.4504 73.0701C71.2104 72.7001 71.2304 72.1701 71.1304 71.7201C71.6304 71.6301 72.1404 71.4901 72.6404 71.4501C73.3104 71.4001 73.9804 71.4401 74.6504 71.4401C74.6904 71.1901 74.7204 70.9301 74.7604 70.6801C73.8804 70.4301 73.0104 70.0801 72.1104 69.9601C70.2104 69.7101 68.8504 68.7701 67.9804 67.0801C67.2704 65.6901 67.7004 64.9201 69.2704 64.8801C75.5804 64.7301 81.9004 64.4501 88.2104 64.5001C92.9904 64.5401 97.7604 65.0201 102.54 65.2901C104.14 65.3801 104.15 66.3001 103.77 67.4901C101.77 73.8901 98.9904 79.9301 94.8304 85.2201C90.5304 90.7001 85.3204 95.0601 79.2504 98.6501C69.8204 104.22 59.6704 106.4 49.0404 105.36C31.7904 103.67 18.2904 95.3801 9.14041 80.5301C6.20041 75.7601 4.05041 70.5901 2.74041 65.1101C2.55041 64.3201 2.62041 63.4701 2.56041 62.4401C9.20041 61.6501 15.6704 60.8601 22.1404 60.1301C28.4204 59.4301 34.7204 58.8001 41.0004 58.1401C40.9804 57.8701 40.9604 57.6001 40.9504 57.3301C38.1104 57.3301 35.2504 57.1801 32.4204 57.3601C28.2904 57.6201 24.1604 58.1001 20.0404 58.5301C16.6904 58.8801 13.3504 59.3501 9.99041 59.6201C9.22041 59.6801 8.37041 59.2401 7.61041 58.9101C6.59041 58.4701 5.61041 57.9101 4.61041 57.4201C1.52041 55.9201 1.34041 55.5701 1.98041 51.6801C2.64041 51.9401 3.36041 52.0401 3.82041 52.4401C6.11041 54.4301 8.30041 53.2601 9.99041 51.2201C10.6104 50.4601 11.1704 49.6301 11.6304 48.7701C12.9504 46.2901 14.7404 44.6501 17.6604 43.9701C21.2504 43.1301 24.7104 41.7301 28.2404 40.6401C29.0304 40.4001 29.9004 40.4401 30.7304 40.3501C29.7704 41.1701 28.6304 41.8601 27.9004 42.8601C26.6704 44.5501 25.1304 45.4401 23.1404 46.0701C21.3304 46.6401 19.2904 47.2901 18.1104 49.7301C19.4404 49.3201 20.3404 49.0501 21.2304 48.7801L21.2504 48.8001C21.5904 48.9901 21.9204 49.3301 22.2604 49.3501C24.6404 49.4601 27.0204 49.4201 29.3904 49.5901C32.3104 49.8001 35.2104 50.4401 37.9704 48.7101C39.2704 47.9001 40.8104 47.4801 42.1804 46.7801C42.7504 46.4901 43.1604 45.9001 43.4404 45.6301C47.1904 47.7001 51.4604 46.7501 55.5104 47.8801C55.0304 46.8401 54.7004 46.1401 54.3704 45.4401C56.3004 44.9001 58.2504 44.4301 60.1404 43.7801C61.3804 43.3501 62.5204 42.6501 63.7104 42.0701C65.4904 41.8201 67.0404 41.9901 67.9704 43.9001C68.3204 44.6201 69.0804 45.1601 69.7304 45.7101C72.2704 47.8701 76.0704 48.4201 78.0504 46.3101C79.9604 44.2701 81.2604 41.6201 82.6404 39.1401C83.1404 38.2401 82.6404 37.6001 81.5004 38.2301C76.9704 39.2101 72.4404 40.2001 67.9204 41.1801C67.4504 41.0401 66.9604 40.7201 66.5204 40.7801C63.0704 41.3101 61.8404 39.3601 61.0004 36.4401C60.7504 35.5701 59.2104 34.5501 58.2204 34.5101C55.7904 34.4101 53.2804 34.5701 50.9204 35.1201C46.6304 36.1101 42.4304 37.4601 38.1904 38.6501C38.5704 38.0801 38.8504 37.1501 39.3604 36.9901C45.0604 35.1801 50.7804 33.4801 56.5204 31.7901C59.2204 30.9901 61.5604 32.2401 63.2504 33.9401C67.6504 38.3801 72.8604 38.7601 78.5204 37.7201C79.9004 37.4701 81.2804 37.1401 82.6704 37.0001C84.2904 36.8301 85.8104 37.1301 86.5704 38.8301C87.1404 40.1101 88.0104 41.3901 88.1004 42.7201C88.3304 46.0501 89.0004 48.9701 93.1404 50.4401C91.5704 51.2101 90.5704 51.6901 89.5704 52.1801C89.5304 52.4001 89.4904 52.6101 89.4504 52.8301C92.4604 53.8801 95.4104 55.2401 98.5004 55.8801C100.74 56.3501 102.84 56.7901 104.49 58.3701C104.9 58.7601 104.95 59.5401 105.16 60.1401C104.6 60.3001 103.99 60.6901 103.49 60.5901C93.7904 58.6001 83.8304 57.7101 74.5704 53.8801C72.1304 52.8701 69.8304 51.5301 67.5004 50.2801C64.3504 48.6001 61.3004 48.9501 58.6304 51.1001C57.0504 52.3701 55.3904 52.6001 53.5504 52.6101C51.9904 52.6101 50.4304 52.5401 48.8904 52.6901C48.4404 52.7301 48.0504 53.3901 47.6404 53.7601C48.0404 54.0701 48.4804 54.6901 48.8404 54.6601C52.7104 54.2801 56.8904 55.1601 60.2204 52.4301C62.4404 50.6101 64.6104 50.7201 66.8204 52.0901C73.7804 56.4101 81.5404 58.4001 89.4504 59.9501C94.1304 60.8701 98.8604 61.5601 103.57 62.3701C103.88 62.4201 104.18 62.5801 104.45 63.1301C100.79 63.1301 96.7004 64.1801 93.5604 62.9201C86.3204 60.0001 78.7404 58.8301 71.2704 57.1301C68.0104 56.3901 64.5904 56.2801 61.2304 56.0701C60.0804 56.0001 58.5604 55.9801 58.1604 57.8501C59.4404 57.7901 60.5204 57.7401 61.7404 57.6901C59.0604 61.7301 49.1704 63.2301 42.0804 60.6801C41.5204 61.8101 40.9804 63.0001 40.3604 64.1401C38.8004 67.0401 37.3004 69.9901 35.5404 72.7801C35.0704 73.5201 33.7604 74.1001 32.8204 74.1201C28.6404 74.2201 24.5104 74.5101 20.5804 76.0601C19.9804 76.3001 19.5404 76.9501 19.0304 77.4101L19.4704 77.9301C20.7704 77.6701 22.0604 77.4101 23.3604 77.1601C26.4804 77.0201 29.6004 76.8701 32.7204 76.7301L32.7404 76.7201ZM17.8304 50.2301C17.7104 50.0601 17.5904 49.8801 17.4704 49.7101C17.1104 50.0001 16.7604 50.3001 16.4004 50.5901L16.6804 50.9701C17.0604 50.7301 17.4404 50.4801 17.8304 50.2401V50.2301Z" fill="#1F311F"/>
<path d="M104.44 42.8801C104.47 43.1501 104.51 43.4101 104.54 43.6801V48.4901C103.62 48.4301 102.9 48.3901 102.18 48.3401L102.01 48.3601L101.87 48.2601C101.66 47.9201 101.48 47.3101 101.24 47.2901C100.21 47.2001 99.1303 47.1301 98.1303 47.3401C94.0203 48.1601 92.1403 46.9701 91.2103 42.9301C91.0603 42.2901 90.4303 41.7701 90.0203 41.2001C89.6403 40.3701 89.2703 39.5401 88.8903 38.7101C87.2103 35.0701 85.9503 34.4501 81.9503 35.0201C79.0903 35.4301 76.2003 35.6801 73.3303 36.0101C70.7103 36.3101 68.4803 35.4601 66.4903 33.8001C65.6803 33.1201 64.8203 32.5101 63.9703 31.8701C60.9503 29.5901 57.6003 28.8801 53.9703 30.0101C48.9303 31.5801 43.9203 33.2701 38.9003 34.9001C38.3103 35.0901 37.6903 35.2201 37.0903 35.3801C36.3203 32.6301 34.0403 31.3101 31.8603 29.9001C31.2203 29.4401 30.5403 28.5501 29.9303 28.5901C27.1703 28.7801 24.4103 29.1701 21.6803 29.6401C21.2103 29.7201 20.8803 30.5901 20.4903 31.1001V31.0801C19.9003 31.4701 19.3203 31.8601 18.7303 32.2501C18.4503 32.2701 18.1603 32.2801 17.8803 32.3001L14.7703 30.2301C14.6603 30.1101 14.5503 30.0001 14.4403 29.8801C13.6003 28.2301 12.4503 26.9201 10.5503 26.4601C10.8503 25.2501 11.1503 24.0401 11.4503 22.8301C13.0903 20.8901 14.7403 18.9601 16.3803 17.0201C16.7203 16.6901 17.0603 16.3701 17.4003 16.0401C19.6503 14.1801 21.9003 12.3201 24.1403 10.4601C25.1603 10.9801 25.9503 10.4601 26.0203 9.23009C26.0603 9.17009 26.1303 9.13009 26.2003 9.12009C27.0903 9.33009 28.2403 10.0101 27.9503 8.14009C29.5403 7.34009 31.1303 6.53009 32.7303 5.73009C33.2703 5.79009 33.8803 6.05009 34.3303 5.89009C45.1803 1.88009 56.1603 0.790092 67.3803 4.25009C68.0903 4.47009 68.9203 4.28009 69.6903 4.28009C69.9603 4.28009 70.2203 4.28009 70.4903 4.28009C71.6803 5.02009 72.8503 5.80009 74.0803 6.48009C76.7803 7.97009 79.4903 9.44009 82.2203 10.8701C83.2703 11.4201 84.3803 11.8401 85.4603 12.3201L85.4403 12.3001C85.7303 12.6101 86.0103 12.9201 86.3003 13.2301C86.6903 13.5201 87.0803 13.8201 87.4703 14.1101C87.9303 14.9301 88.3103 15.8101 88.8803 16.5401C90.4703 18.5501 92.1503 20.4901 93.8003 22.4601C94.4403 23.2201 95.4303 23.7501 95.9503 24.5701C96.8003 25.9001 97.3203 27.4301 98.0203 28.8601C99.6003 32.1001 101.19 35.3301 102.78 38.5701C103.2 39.4401 103.61 40.3101 104.02 41.1801C104.05 41.4501 104.09 41.7101 104.12 41.9801L104.44 42.8701V42.8801ZM71.3203 28.1401C70.8103 26.4001 68.4503 24.5701 66.8603 24.7901C66.7503 24.8001 66.7403 25.5801 66.6903 26.0001C67.5003 27.5501 69.6803 28.1001 69.7503 30.1901C69.7503 30.2801 69.9903 30.4601 70.0503 30.4401C72.1303 29.5201 71.4903 31.2701 71.7803 32.1501C71.9403 32.6301 72.1903 33.0801 72.4003 33.5401L73.0703 33.2801C72.4903 31.5701 71.9103 29.8601 71.3303 28.1501L71.3203 28.1401Z" fill="#E4E4E4"/>
<path d="M16.6305 41.65C13.2705 43.07 10.9005 45.49 9.14049 48.67C8.56049 49.72 7.33049 50.42 6.40049 51.27L4.43049 50.15C3.80049 49.75 3.16049 49.35 2.53049 48.95C2.48049 47.32 4.01049 45.6 2.25049 44.07C2.34049 43.68 2.44049 43.28 2.53049 42.89C2.88049 42.52 3.38049 42.21 3.55049 41.77C4.98049 38.07 6.38049 34.36 7.72049 30.63C8.16049 29.39 8.84049 28.72 10.2005 28.92C10.6405 29.46 11.0905 29.99 11.5305 30.53C12.0205 31.38 12.5105 32.22 13.0105 33.07C13.8505 35.32 14.6505 35.68 16.5705 34.67C16.5905 37 16.6205 39.33 16.6405 41.65H16.6305Z" fill="#E4E4E4"/>
<path d="M54.4004 45.4499C54.7304 46.1499 55.0604 46.8599 55.5404 47.8899C51.5004 46.7599 47.2204 47.7099 43.4704 45.6399C43.1904 45.8999 42.7804 46.4999 42.2104 46.7899C40.8404 47.4999 39.3004 47.9099 38.0004 48.7199C35.2404 50.4499 32.3404 49.8099 29.4204 49.5999C27.0504 49.4299 24.6604 49.4699 22.2904 49.3599C21.9504 49.3399 21.6204 48.9999 21.2804 48.8099C21.3404 48.7499 21.3904 48.6799 21.4504 48.6199C21.3904 48.6799 21.3204 48.7299 21.2604 48.7899C20.3704 49.0599 19.4804 49.3299 18.1404 49.7399C19.3204 47.2999 21.3604 46.6499 23.1704 46.0799C25.1604 45.4499 26.6904 44.5599 27.9304 42.8699C28.6604 41.8799 29.8004 41.1899 30.7604 40.3599H30.9404C31.5304 40.2099 32.1204 40.0599 32.7104 39.9099C33.5704 39.6499 34.4204 39.3899 35.2804 39.1399C35.6204 38.9799 35.9604 38.8299 36.2904 38.6699C36.4804 38.6699 36.6604 38.6699 36.8504 38.6699C37.0504 38.6699 37.2504 38.6699 37.4604 38.6699C37.7204 38.6699 37.9704 38.6699 38.2304 38.6699C42.4704 37.4699 46.6704 36.1299 50.9604 35.1399C53.3204 34.5899 55.8404 34.4299 58.2604 34.5299C59.2504 34.5699 60.7904 35.5899 61.0404 36.4599C61.8704 39.3799 63.1004 41.3399 66.5604 40.7999C66.9904 40.7299 67.4904 41.0499 67.9604 41.1999C68.6904 42.2799 69.2704 43.4999 70.1704 44.4099C72.8704 47.1699 76.3404 47.1599 78.6704 44.1499C79.9804 42.4499 80.6104 40.2299 81.5504 38.2399C82.6904 37.6199 83.1904 38.2499 82.6904 39.1499C81.3104 41.6299 80.0104 44.2799 78.1004 46.3199C76.1204 48.4299 72.3204 47.8799 69.7804 45.7199C69.1404 45.1699 68.3704 44.6299 68.0204 43.9099C67.0904 41.9999 65.5504 41.8399 63.7604 42.0799C61.7804 41.2199 60.7404 39.5799 60.2404 37.6099C59.7304 35.6199 58.4104 35.0799 56.5904 35.2999C55.2704 35.4599 53.9304 35.6099 52.6504 35.9499C47.9904 37.1699 43.3504 38.4799 38.6904 39.6999C37.0004 40.1399 35.2504 40.4099 33.5404 40.7799C29.6504 41.6299 27.9804 44.9899 25.0004 47.8199C27.9504 48.1499 30.2104 48.3999 32.6704 48.6699C32.2304 47.1399 31.8504 45.7999 31.4704 44.4599L31.9704 44.2499C32.6504 45.2599 33.4704 46.2199 33.9704 47.3099C34.4904 48.4499 35.1804 48.5599 36.1704 48.1399C37.4604 47.5999 38.7104 46.8799 40.0504 46.5199C42.0004 45.9899 42.5204 44.7199 42.5404 42.9199C42.5404 42.3699 42.9204 41.8199 43.1304 41.2699C43.3204 41.1799 43.5204 41.0799 43.7104 40.9899C44.0004 46.8299 48.2804 45.4899 51.7404 46.0899C50.9304 45.0799 50.2604 44.2399 49.5904 43.3999C49.8004 43.1699 50.0004 42.9299 50.2104 42.6999C51.6204 43.6199 53.0204 44.5399 54.4304 45.4599L54.4004 45.4499Z" fill="#010302"/>
<path d="M16.6303 41.6499C16.6103 39.3199 16.5803 36.9899 16.5603 34.6699C17.3803 33.1399 18.8503 33.6799 20.0903 33.6299C21.5503 33.5599 22.8403 33.3099 23.6603 32.0099H19.7403C19.9803 31.6999 20.2203 31.3999 20.4703 31.0899C20.4703 31.0899 20.4703 31.1099 20.4603 31.1099C24.0603 28.9599 27.8303 28.2699 31.8303 29.9099C34.0103 31.3199 36.3003 32.6399 37.0603 35.3899C34.3503 36.3099 31.6703 37.2999 28.9303 38.1199C24.8403 39.3599 20.7203 40.4799 16.6203 41.6499H16.6303Z" fill="#CE762D"/>
<path d="M59.4105 69.98C59.2705 70.37 58.9105 70.83 59.0205 71.13C59.4105 72.28 59.9405 73.38 60.4205 74.5L60.2905 74.62C60.0105 74.62 59.7405 74.61 59.4605 74.6C59.3605 74.45 59.2505 74.3 59.1505 74.16C59.2505 74.31 59.3605 74.46 59.4605 74.61C59.4605 75.03 59.4605 75.45 59.4705 75.87L59.3405 75.98C58.4405 74.54 57.5405 73.09 56.6405 71.65C56.5405 71.68 56.4305 71.7 56.3305 71.73L56.5505 73.29L56.4705 73.36C55.8005 72.46 55.1305 71.57 54.4605 70.67C54.1805 71.44 54.3005 72.1 54.5005 72.73C54.7005 73.37 54.9805 73.98 55.2305 74.61C55.1305 74.71 55.0305 74.81 54.9305 74.92C54.4405 74.11 53.9405 73.3 53.4505 72.49C55.6505 78.68 58.4905 84.47 63.2605 89.1C62.0905 89.93 61.3405 89.83 60.1705 88.18C58.0505 85.19 56.0505 82.12 54.1205 79.01C52.9305 77.1 51.9805 75.04 50.8905 73.07C50.5905 72.52 50.1805 72.04 49.6305 71.66C52.2505 78.57 55.5505 85.06 60.7305 90.45C60.6005 90.59 60.4605 90.74 60.3305 90.88C59.5405 90.2 58.6305 89.61 57.9705 88.83C53.8105 83.88 50.6705 78.31 48.0505 72.43C46.7305 69.49 45.4405 66.53 44.0105 63.28C44.7905 63.38 45.3005 63.42 45.8005 63.53C49.8905 64.36 53.8005 63.51 57.6705 62.28C55.7605 63.01 53.9105 64.04 51.9305 64.4C49.8905 64.77 47.7405 64.48 45.3505 64.48C45.9305 65.81 46.3205 66.72 46.7405 67.7C47.1305 67.26 47.3605 66.99 47.2105 67.16C48.4305 68.17 49.3505 69.51 50.5105 69.75C51.7505 70.01 53.5305 71.24 54.6805 69.18C54.7705 69.02 56.0905 69.21 56.4205 69.59C57.1905 70.47 57.7005 71.57 58.3605 72.67C58.1005 70.77 57.8705 69.05 57.6305 67.33C57.8505 67.29 58.0705 67.25 58.2905 67.21C58.6505 68.14 59.0205 69.07 59.3805 69.99L59.4105 69.98ZM52.2405 73.34C52.1305 73.19 52.0205 73.04 51.9205 72.9L52.2405 73.34Z" fill="#DCAF67"/>
<path d="M59.4104 69.9801C59.0504 69.0501 58.6804 68.1201 58.3204 67.2001C58.1004 67.2401 57.8804 67.2801 57.6604 67.3201C57.8904 69.0401 58.1304 70.7601 58.3904 72.6601C57.7204 71.5601 57.2104 70.4601 56.4504 69.5801C56.1204 69.2001 54.8004 69.0101 54.7104 69.1701C53.5704 71.2301 51.7804 70.0101 50.5404 69.7401C49.3804 69.4901 48.4604 68.1601 47.2404 67.1501C47.3904 66.9801 47.1504 67.2501 46.7704 67.6901C46.3404 66.7101 45.9504 65.8001 45.3804 64.4701C47.7704 64.4701 49.9304 64.7601 51.9604 64.3901C53.9404 64.0301 55.7904 63.0101 57.7004 62.2701V62.2801C59.2804 62.3601 60.8904 62.5301 61.3504 60.4201L61.4604 60.3601C62.2404 61.3501 63.0204 62.3401 63.8004 63.3201C63.5704 63.3801 63.3504 63.4401 63.1204 63.5001C63.0404 64.2501 62.9704 65.0101 62.8904 65.7601C63.1804 66.7101 63.4704 67.6701 63.7604 68.6201C63.3104 68.6501 62.8704 68.6801 62.4204 68.7101C62.0304 68.2701 61.6404 67.8301 61.2604 67.3901L60.6204 67.6501C61.2504 69.2201 61.8904 70.7901 62.5204 72.3601C62.1504 72.7701 61.7904 73.1801 61.4204 73.5901C61.4204 73.5901 61.4104 73.4601 61.4104 73.4501C60.8104 72.4301 60.2104 71.4001 59.6104 70.3801C59.5504 70.2501 59.5004 70.1101 59.4404 69.9801H59.4104Z" fill="#D6A556"/>
<path d="M40.1705 81.38C40.2105 81.95 40.2605 82.5199 40.3005 83.0799C39.9905 83.5699 39.6805 84.06 39.3705 84.54C39.1105 84.72 38.6505 84.87 38.6205 85.07C38.4705 86.43 38.4205 87.7999 38.3505 89.0799C37.6405 89.3699 37.0505 89.6 36.4605 89.84C35.6405 89.97 34.8205 90.0999 33.9905 90.2199C32.0205 90.0499 31.3905 88.92 31.6305 87.06C31.8005 85.75 31.7505 84.41 31.9805 83.11C32.0605 82.67 32.7005 82.33 33.0805 81.95C33.2305 82.28 33.3705 82.6099 33.5205 82.9399C33.5905 83.1399 33.6705 83.34 33.7405 83.54C33.8305 83.52 33.9105 83.51 34.0005 83.49V82.2999C34.6905 81.0699 35.3905 79.8399 36.0405 78.6899C36.1605 79.2599 36.3105 80.03 36.5205 81.02C37.0305 80 37.4205 79.22 37.8205 78.45C38.2005 79.57 38.5105 80.46 38.8205 81.35C39.2805 81.35 39.7305 81.35 40.1905 81.35L40.1705 81.38Z" fill="#D6A556"/>
<path d="M51.3405 82.2201C52.6205 84.2001 53.9104 86.1801 55.1904 88.1601C55.0604 89.2301 54.7205 90.3201 54.8505 91.3501C55.0705 93.1601 54.3204 93.2701 52.9304 92.8101C51.2604 92.2601 49.5705 91.7401 47.8805 91.2101L47.9205 91.2201C47.7705 91.0601 47.6205 90.8901 47.4705 90.7301L47.5005 90.7701C47.1905 90.3501 46.8804 89.9301 46.5704 89.5101L46.6004 89.5301C46.4304 89.2501 46.2605 88.9801 46.0905 88.7001H46.1204C45.9704 88.4301 45.8105 88.1601 45.6505 87.8901V87.8301C47.3405 85.7501 46.7005 89.2201 48.0805 88.3901C49.2205 87.3201 47.2904 86.6201 47.1004 85.5701C46.9504 85.1101 46.8005 84.6501 46.6505 84.1801C46.3205 83.4201 46.0005 82.6601 45.6705 81.9101L45.7304 81.8901C45.5604 81.4801 45.3804 81.0801 45.2104 80.6701C45.2104 80.6701 45.2804 80.6401 45.2804 80.6301C45.4904 79.8801 45.6905 79.1401 45.9005 78.3901L45.8805 78.3701C46.1905 78.9301 46.5005 79.4901 46.8105 80.0501C47.9105 81.7501 49.0105 83.4601 50.1005 85.1601C50.4805 86.5301 51.2905 87.4101 53.3805 87.7401C52.8505 86.5201 52.5404 85.6801 52.1204 84.8901C51.6404 83.9701 51.0605 83.1101 50.5305 82.2201C50.7905 82.2201 51.0605 82.2201 51.3205 82.2101L51.3405 82.2201Z" fill="#D6A556"/>
<path d="M64.0005 58.3601C72.0705 59.6101 80.2105 60.8701 88.7505 62.2001C84.6305 62.5601 81.0105 62.9501 77.3805 63.1501C74.9105 63.2901 72.4305 63.2301 69.9605 63.1601C66.7905 63.0801 64.3705 61.9701 64.0005 58.3601Z" fill="#1F311F"/>
<path d="M62.8704 65.75C62.9504 65 63.0204 64.24 63.1004 63.49C63.3304 63.43 63.5504 63.37 63.7804 63.31C63.0004 62.32 62.2204 61.33 61.4404 60.35C62.4504 59.18 62.7804 60.11 63.1804 60.9C64.4804 63.46 65.6204 66.14 67.1504 68.55C69.6304 72.45 72.3904 76.17 75.0104 79.98C75.4904 80.67 75.8604 81.43 76.2804 82.16C76.1004 82.31 75.9204 82.47 75.7504 82.62C75.2104 82.17 74.6404 81.76 74.1204 81.28C69.8904 77.3 67.3804 72.16 64.5704 67.22C64.2204 66.6 63.4504 66.23 62.8704 65.74V65.75Z" fill="#DCAF67"/>
<path d="M104.02 41.1901C103.61 40.3201 103.2 39.4401 102.78 38.5801C101.2 35.3401 99.6005 32.1101 98.0205 28.8701C97.3305 27.4401 96.8005 25.9101 95.9505 24.5801C95.4205 23.7601 94.4305 23.2301 93.8005 22.4701C92.1505 20.5001 90.4705 18.5601 88.8805 16.5501C88.3005 15.8201 87.9305 14.9301 87.4705 14.1201C95.8905 20.8001 101.06 29.5701 104 39.7601C104.13 40.2001 104.02 40.7201 104.02 41.2001V41.1901Z" fill="#E9E9EA"/>
<path d="M62.4004 68.7101C62.8504 68.6801 63.2904 68.6501 63.7404 68.6201C64.1504 69.1401 64.6804 69.6101 64.9604 70.1901C67.3904 75.0901 70.4304 79.5301 74.5704 83.1801C73.3704 84.2001 73.2204 84.3301 72.3004 83.2601C70.0604 80.6401 67.8404 77.9901 65.8704 75.1701C64.4904 73.1801 63.5404 70.8801 62.4004 68.7201V68.7101Z" fill="#DCAF67"/>
<path d="M50.5504 82.2299C51.0803 83.1199 51.6604 83.9799 52.1404 84.8999C52.5604 85.6899 52.8703 86.5399 53.4003 87.7499C51.3103 87.4199 50.5003 86.5399 50.1203 85.1699C50.0303 84.3599 50.1804 83.3899 49.8004 82.7499C46.8404 77.8599 44.5704 72.7199 43.8604 66.9099C45.7304 70.8299 47.5904 74.7499 49.4604 78.6599C49.3904 78.7199 49.3304 78.7799 49.2704 78.8399C49.0404 78.8199 48.8004 78.8099 48.5704 78.7899C48.8004 79.2299 49.0404 79.6699 49.2704 80.1099C49.4104 80.3999 49.5503 80.6699 49.6803 80.9499L49.7004 80.9699C49.8304 81.0999 49.9704 81.2299 50.1004 81.3699L50.1304 81.4099C50.2604 81.6799 50.4004 81.9499 50.5304 82.2199V82.2399L50.5504 82.2299Z" fill="#DCAF67"/>
<path d="M69.6905 4.28012C68.9205 4.28012 68.0805 4.47012 67.3805 4.25012C56.1505 0.780117 45.1805 1.87012 34.3305 5.89012C33.8805 6.06012 33.2605 5.79012 32.7305 5.73012C39.9805 2.42012 47.6205 1.06012 55.5405 1.40012C60.3905 1.61012 65.2505 1.98012 69.6905 4.28012Z" fill="#E9E9EA"/>
<path d="M60.5204 83.94C58.6604 80.93 56.8004 77.92 54.9404 74.9C55.0404 74.8 55.1404 74.7 55.2404 74.59C55.6604 74.73 56.0704 74.88 56.6204 75.07C56.5604 74.37 56.5204 73.86 56.4804 73.34L56.5604 73.27C58.0104 75.83 59.3304 78.46 60.9304 80.92C62.5304 83.37 64.4104 85.63 66.4904 88.4C65.4804 88.27 64.2904 88.47 63.7504 87.97C62.5004 86.8 61.5804 85.29 60.5204 83.92C61.0104 84.06 61.5004 84.2 61.9804 84.34C62.2704 84.9 62.5504 85.46 62.8404 86.02C62.9804 86.16 63.1204 86.3 63.2604 86.45C63.4004 86.59 63.5504 86.73 63.6904 86.87C63.7504 86.9 63.8104 86.93 63.8704 86.96C63.8104 86.93 63.7604 86.89 63.7004 86.86C63.5604 86.72 63.4204 86.58 63.2804 86.43C63.1404 86.29 63.0004 86.15 62.8504 86.01C62.5704 85.44 62.2904 84.88 62.0104 84.31C61.5104 83.47 61.0104 82.63 60.5204 81.79C60.3804 81.88 60.2504 81.97 60.1104 82.07C60.2404 82.69 60.3804 83.3 60.5104 83.92L60.5204 83.94ZM56.9104 76.72L56.6104 75.61C56.4604 75.69 56.3104 75.77 56.1604 75.86C56.4104 76.15 56.6504 76.44 56.9004 76.74L59.2604 81.36C59.4704 81.24 59.6704 81.12 59.8804 81.01C59.0904 79.47 58.7504 77.66 56.9104 76.74V76.72Z" fill="#DCAF67"/>
<path d="M10.2003 28.9201C8.84027 28.7201 8.16027 29.3901 7.72027 30.6301C6.38027 34.3601 4.98027 38.0701 3.55027 41.7701C3.38027 42.2101 2.88027 42.5201 2.53027 42.8901C3.56027 39.4101 4.59027 35.9401 5.62027 32.4601C5.84027 32.0301 6.06027 31.6001 6.28027 31.1701C8.00027 28.3901 9.72027 25.6201 11.4403 22.8401C11.1403 24.0501 10.8403 25.2701 10.5403 26.4801C10.4303 27.3001 10.3103 28.1101 10.2003 28.9301V28.9201Z" fill="#E9E9EA"/>
<path d="M63.3804 79.6501C65.3404 81.8401 67.2904 84.0201 69.2604 86.2101C67.6604 87.4101 66.4804 86.6001 65.6304 85.5201C64.0504 83.5101 62.6704 81.3501 61.2004 79.2501C61.8004 79.2201 62.4004 79.1801 63.0004 79.1501L62.9404 79.1201C63.0904 79.2901 63.2304 79.4701 63.3804 79.6401V79.6501Z" fill="#D6AA5D"/>
<path d="M85.4605 12.32C84.3805 11.84 83.2605 11.42 82.2205 10.87C79.4905 9.44003 76.7805 7.97003 74.0805 6.48003C72.8505 5.80003 71.6905 5.02003 70.4905 4.28003C76.0705 5.87003 81.0305 8.60003 85.4605 12.31V12.32Z" fill="#E9E9EA"/>
<path d="M95.2104 51.9601C96.2204 51.7201 97.0604 51.5901 97.8304 51.3001C98.5204 51.0401 99.1304 50.5901 100.37 49.8901C100.22 51.7001 100.57 53.9601 99.9004 54.3201C97.8904 55.3901 96.5204 53.6801 95.2104 51.9601Z" fill="#07130B"/>
<path d="M90.0005 41.1899C90.4105 41.7699 91.0505 42.2899 91.1905 42.9199C92.1305 46.9599 94.0005 48.1499 98.1105 47.3299C99.1105 47.1299 100.19 47.1999 101.22 47.2799C101.46 47.2999 101.64 47.9099 101.85 48.2499C100.61 48.2299 99.3705 48.2499 98.1405 48.1699C96.2805 48.0599 94.3705 48.0799 92.5805 47.6399C91.8005 47.4499 91.0005 46.3399 90.7005 45.4799C90.2405 44.1199 90.2005 42.6199 89.9905 41.1799L90.0005 41.1899Z" fill="#E9E9EA"/>
<path d="M47.1205 85.57C47.3105 86.62 49.2405 87.32 48.1005 88.39C46.7105 89.22 47.3605 85.75 45.6705 87.83C44.7005 85.19 43.7305 82.56 42.7605 79.92C42.9305 79.86 43.1005 79.8 43.2805 79.73C44.1805 81.54 45.0505 83.36 46.0105 85.14C46.1505 85.41 46.7505 85.43 47.1305 85.57H47.1205Z" fill="#DCAF67"/>
<path d="M65.4704 77.04C66.1604 77.96 66.8504 78.87 67.5404 79.79C67.6704 81.23 68.2704 82.26 69.8304 82.48L69.8604 82.49C69.4404 82.9 69.0304 83.31 68.6104 83.71C68.6104 83.71 68.6104 83.66 68.6204 83.66C68.3304 83.38 68.0504 83.1 67.7604 82.81C67.5804 82.61 67.4004 82.41 67.2204 82.21C65.8604 80.38 64.5004 78.56 63.1404 76.73C63.2204 76.64 63.3104 76.56 63.3904 76.47C63.2804 76.51 63.1704 76.56 63.0604 76.6C62.9904 76.55 62.9604 76.49 62.9704 76.41C63.5704 76.27 64.1704 76.13 64.7704 76L64.8104 76.18C64.8104 76.49 64.8104 76.8 64.8104 77.12C65.0304 77.09 65.2404 77.05 65.4604 77.02L65.4704 77.04Z" fill="#D6A556"/>
<path d="M32.7404 76.72C29.6204 76.86 26.5004 77.01 23.3804 77.15C23.4204 77.02 23.4204 76.79 23.5004 76.76C26.4104 75.78 29.3504 75.02 32.4404 75.89C32.6104 75.94 32.6404 76.43 32.7404 76.72Z" fill="#07130B"/>
<path d="M102.01 51.0801C102.76 51.5401 103.86 51.8401 104.17 52.5001C104.7 53.6401 105.52 55.0601 103.67 56.5901C102.85 54.9201 102.09 53.3901 101.33 51.8601C101.56 51.6001 101.78 51.3401 102.01 51.0801Z" fill="#07130B"/>
<path d="M36.4604 89.8501C37.0504 89.6101 37.6404 89.38 38.3504 89.09C38.4304 87.81 38.4804 86.44 38.6204 85.08C38.6404 84.88 39.1104 84.72 39.3704 84.55C39.6804 85.72 39.9805 86.8901 40.2905 88.0601C40.3105 88.7901 40.3205 89.53 40.3405 90.26C39.0505 90.12 37.7504 89.9901 36.4604 89.8501Z" fill="#1E1E1E"/>
<path d="M47.8904 91.2099C49.5704 91.7399 51.2604 92.2499 52.9404 92.8099C54.3304 93.2699 55.0804 93.1599 54.8604 91.3499C54.7304 90.3199 55.0704 89.2199 55.2004 88.1599C55.2004 89.9199 55.2004 91.6699 55.2004 93.4299C53.5104 93.1899 51.7904 93.0599 50.1404 92.6499C49.3204 92.4399 48.6404 91.6999 47.9004 91.2099H47.8904Z" fill="#DCAF67"/>
<path d="M40.1703 81.3799C39.7103 81.3799 39.2603 81.3799 38.8003 81.3799C39.2103 78.2999 39.6103 75.2199 40.0203 72.1499C40.1603 73.1099 40.3003 74.0699 40.4503 75.0199C40.3603 77.1399 40.2703 79.2599 40.1703 81.3799Z" fill="#D6AA5D"/>
<path d="M102.18 48.3399C102.9 48.3799 103.62 48.4299 104.54 48.4899V43.6799C105.01 45.8299 105.49 47.9899 105.96 50.1399C105.77 50.2399 105.58 50.3399 105.38 50.4399C104.31 49.7399 103.24 49.0399 102.17 48.3399H102.18Z" fill="#E9E9EA"/>
<path d="M63.0003 79.16C62.4003 79.19 61.8003 79.23 61.2003 79.26C60.5803 78.17 59.9603 77.07 59.3403 75.98L59.4703 75.87C59.7503 75.46 60.0203 75.04 60.3003 74.62L60.4303 74.5C61.2903 76.05 62.1503 77.61 63.0103 79.16H63.0003Z" fill="#DCAF67"/>
<path d="M45.9205 78.39C45.7105 79.14 45.5105 79.88 45.3005 80.63C44.6105 78.7 43.9205 76.77 43.2305 74.84L43.9005 74.47C44.5705 75.78 45.2505 77.08 45.9205 78.39Z" fill="#DCAF67"/>
<path d="M36.4605 89.8501C37.7505 89.9901 39.0505 90.1201 40.3405 90.2601C40.3905 90.7201 40.4405 91.1701 40.5305 91.9401C38.2405 91.3401 36.1105 90.7901 33.9905 90.2401C34.8105 90.1101 35.6305 89.9801 36.4605 89.8601V89.8501Z" fill="#DCAF67"/>
<path d="M64.7804 76.0201C64.1804 76.1601 63.5804 76.3001 62.9804 76.4301C62.4504 75.4801 61.9304 74.5301 61.4004 73.5801C61.7704 73.1701 62.1304 72.7601 62.5004 72.3501C62.8304 72.9501 63.1604 73.5601 63.4904 74.1601C63.1804 74.1601 62.8704 74.1601 62.5604 74.1601C62.6404 74.3301 62.7204 74.5101 62.8004 74.6801C63.0304 74.5101 63.2604 74.3401 63.4904 74.1701C63.9204 74.7901 64.3504 75.4101 64.7704 76.0201H64.7804Z" fill="#DCAF67"/>
<path d="M68.6104 83.72C69.0304 83.31 69.4404 82.91 69.8604 82.5C70.6304 83.21 71.4004 83.92 72.1904 84.66C70.6904 85.65 70.3404 85.54 68.6104 83.72Z" fill="#DCAF67"/>
<path d="M39.1504 71.2101C38.8604 73.1901 38.5704 75.1801 38.2804 77.1601C38.0804 77.1301 37.8804 77.1001 37.6904 77.0601C37.9604 75.0701 38.2204 73.0801 38.4904 71.0901C38.7104 71.1301 38.9404 71.1601 39.1604 71.2001L39.1504 71.2101Z" fill="#CE9F4B"/>
<path d="M2.25051 44.0701C4.01051 45.6001 2.48051 47.3201 2.53051 48.9501C2.24051 48.5001 1.70051 48.0401 1.72051 47.6001C1.77051 46.4201 2.06051 45.2501 2.25051 44.0701Z" fill="#E9E9EA"/>
<path d="M40.3004 88.0501C39.9904 86.8801 39.6904 85.7101 39.3804 84.5401C39.6904 84.0501 40.0004 83.5601 40.3104 83.0801C40.3104 84.7401 40.3104 86.3901 40.3104 88.0501H40.3004Z" fill="#D6AA5D"/>
<path d="M40.4505 75.0201C40.3105 74.0601 40.1705 73.1001 40.0205 72.1501C40.1905 70.4701 40.3605 68.8001 40.5405 67.1201C40.7005 67.1401 40.8705 67.1601 41.0305 67.1801C40.8405 69.7901 40.6405 72.4101 40.4505 75.0201Z" fill="#545454"/>
<path d="M6.50043 60.15C5.24043 60.3 3.99043 60.45 2.73043 60.61C2.72043 60.33 2.70043 60.06 2.69043 59.78H6.49043C6.49043 59.9 6.50043 60.03 6.51043 60.15H6.50043Z" fill="#1F311F"/>
<path d="M61.3204 60.4199C60.8704 62.5299 59.2504 62.3599 57.6704 62.2799C58.8904 61.6599 60.1004 61.0399 61.3204 60.4199Z" fill="#DCAF67"/>
<path d="M51.3403 82.2199C51.0803 82.2199 50.8103 82.2199 50.5503 82.2299L50.5403 82.2099C50.4103 81.9399 50.2703 81.6699 50.1403 81.3999L50.1103 81.3599C49.9803 81.2299 49.8403 81.0999 49.7103 80.9599L49.6903 80.9399C49.5503 80.6599 49.4103 80.3899 49.2803 80.1099V80.0999C49.2803 79.6799 49.2803 79.2599 49.2803 78.8399C49.3403 78.7799 49.4103 78.7199 49.4703 78.6599C50.1003 79.8499 50.7203 81.0299 51.3503 82.2199H51.3403Z" fill="#DCAF67"/>
<path d="M69.8303 82.48C68.2703 82.26 67.6703 81.22 67.5403 79.79C68.3003 80.69 69.0703 81.59 69.8303 82.48Z" fill="#DCAF67"/>
<path d="M26.0104 9.23999C25.9404 10.47 25.1504 10.99 24.1304 10.47C24.7604 10.06 25.3804 9.64999 26.0104 9.23999Z" fill="#E9E9EA"/>
<path d="M27.9404 8.14014C28.2304 10.0101 27.0704 9.33014 26.1904 9.12014C26.7704 8.79014 27.3604 8.47014 27.9404 8.14014Z" fill="#E9E9EA"/>
<path d="M45.6904 81.8999C46.0204 82.6599 46.3404 83.4199 46.6704 84.1699C46.3404 83.4099 46.0204 82.6499 45.6904 81.8999Z" fill="#DCAF67"/>
<path d="M33.5103 82.9601C33.3603 82.6301 33.2203 82.3001 33.0703 81.9701C33.2203 81.6901 33.3703 81.4101 33.5103 81.1301C33.6103 81.1701 33.7203 81.2101 33.8203 81.2501C33.7403 81.5901 33.6503 81.9301 33.5703 82.2701C33.5503 82.5001 33.5303 82.7301 33.5103 82.9601Z" fill="#1E1E1E"/>
<path d="M94.6103 50.53C94.3503 50.68 94.1503 50.87 94.0503 50.83C93.8603 50.75 93.7303 50.53 93.5703 50.36C93.7503 50.29 93.9303 50.16 94.1003 50.17C94.2403 50.18 94.3803 50.36 94.6003 50.53H94.6103Z" fill="#1F311F"/>
<path d="M104.44 42.88C104.33 42.58 104.23 42.28 104.12 41.99C104.23 42.29 104.33 42.59 104.44 42.88Z" fill="#E9E9EA"/>
<path d="M94.1404 52.77C94.2604 52.82 94.4404 52.85 94.4704 52.93C94.5004 53.01 94.3904 53.16 94.3304 53.27C94.2104 53.22 94.0304 53.19 94.0004 53.11C93.9704 53.03 94.0804 52.88 94.1404 52.77Z" fill="#07130B"/>
<path d="M33.5105 82.96C33.5305 82.73 33.5505 82.5 33.5705 82.27C33.7105 82.29 33.8505 82.31 33.9905 82.33C33.9905 82.73 33.9905 83.12 33.9905 83.52C33.9005 83.54 33.8205 83.55 33.7305 83.57C33.6605 83.37 33.5805 83.17 33.5105 82.97V82.96Z" fill="#DCAF67"/>
<path d="M36.2805 38.6599C35.9405 38.8199 35.6005 38.9699 35.2705 39.1299C35.6105 38.9699 35.9505 38.8199 36.2805 38.6599Z" fill="#1F311F"/>
<path d="M65.4703 77.04C65.2503 77.07 65.0403 77.11 64.8203 77.14C64.8203 76.83 64.8203 76.52 64.8203 76.2C65.0403 76.48 65.2603 76.76 65.4803 77.04H65.4703Z" fill="#DCAF67"/>
<path d="M67.7605 82.8201C68.0505 83.1001 68.3305 83.3801 68.6205 83.6701C68.3305 83.3901 68.0505 83.1101 67.7605 82.8201Z" fill="#DCAF67"/>
<path d="M63.0703 76.63C63.1803 76.59 63.2903 76.54 63.4003 76.5C63.3203 76.59 63.2303 76.67 63.1503 76.76L63.0603 76.63H63.0703Z" fill="#DCAF67"/>
<path d="M54.4005 45.45L50.1805 42.69C49.9705 42.92 49.7705 43.16 49.5605 43.39C50.2305 44.23 50.9105 45.07 51.7105 46.08C48.2505 45.48 43.9705 46.82 43.6805 40.98C43.4905 41.07 43.2905 41.17 43.1005 41.26C42.8905 41.81 42.5205 42.36 42.5105 42.91C42.4905 44.71 41.9705 45.99 40.0205 46.51C38.6805 46.87 37.4405 47.59 36.1405 48.13C35.1505 48.54 34.4605 48.43 33.9405 47.3C33.4405 46.2 32.6205 45.25 31.9405 44.24L31.4405 44.45C31.8205 45.79 32.2005 47.13 32.6405 48.66C30.1905 48.39 27.9305 48.14 24.9705 47.81C27.9505 44.98 29.6205 41.62 33.5105 40.77C35.2205 40.4 36.9705 40.13 38.6605 39.69C43.3205 38.47 47.9605 37.15 52.6205 35.94C53.9005 35.61 55.2405 35.45 56.5605 35.29C58.3805 35.07 59.7005 35.61 60.2105 37.6C60.7105 39.57 61.7505 41.22 63.7305 42.07C62.5405 42.65 61.4005 43.35 60.1605 43.78C58.2705 44.43 56.3205 44.9 54.3905 45.44L54.4005 45.45Z" fill="#07130B"/>
<path d="M81.5304 38.23C80.5904 40.22 79.9704 42.44 78.6504 44.14C76.3204 47.15 72.8604 47.15 70.1504 44.4C69.2504 43.49 68.6704 42.27 67.9404 41.19C72.4704 40.21 77.0004 39.22 81.5204 38.24L81.5304 38.23Z" fill="#07130B"/>
<path d="M17.8304 50.2299C17.4504 50.4699 17.0704 50.72 16.6804 50.96L16.4004 50.58C16.7604 50.29 17.1104 49.99 17.4704 49.7C17.5904 49.87 17.7104 50.05 17.8304 50.22V50.2299Z" fill="#010302"/>
<path d="M10.2004 28.92C10.3104 28.1 10.4304 27.29 10.5404 26.47C11.8404 27.61 13.1304 28.75 14.4304 29.89C14.5404 30.01 14.6504 30.12 14.7604 30.24C15.2304 31.77 16.4504 32.19 17.8704 32.31C18.1504 32.29 18.4404 32.28 18.7204 32.26C19.0604 32.18 19.4104 32.09 19.7504 32.01H23.6704C22.8504 33.31 21.5604 33.56 20.1004 33.63C18.8504 33.69 17.3904 33.15 16.5704 34.67C14.6604 35.67 13.8504 35.31 13.0104 33.06C13.2204 33.05 13.4304 33.04 13.6404 33.02C13.9204 32.92 14.2004 32.82 14.4804 32.72C14.5204 32.67 14.5904 32.62 14.6004 32.56C14.6004 32.52 14.5604 32.44 14.5204 32.41C13.5304 31.78 12.5304 31.15 11.5304 30.52C11.0904 29.98 10.6404 29.45 10.2004 28.91V28.92Z" fill="#1E1E1E"/>
<path d="M71.3204 28.1401C71.9004 29.8501 72.4804 31.5601 73.0604 33.2701L72.3904 33.5301C72.1804 33.0701 71.9204 32.6201 71.7704 32.1401C71.4904 31.2601 72.1304 29.5001 70.0404 30.4301C69.9804 30.4501 69.7504 30.2701 69.7404 30.1801C69.6704 28.0901 67.4904 27.5301 66.6804 25.9901C68.8004 25.4701 69.8904 27.1701 71.3104 28.1301L71.3204 28.1401Z" fill="#2B2B2B"/>
<path d="M31.8405 29.8999C27.8305 28.2699 24.0705 28.9499 20.4705 31.0999C20.8605 30.5999 21.1905 29.7299 21.6605 29.6399C24.3905 29.1599 27.1505 28.7699 29.9105 28.5899C30.5205 28.5499 31.1905 29.4399 31.8405 29.8999Z" fill="#E9E9EA"/>
<path d="M71.3204 28.14C69.8904 27.18 68.8004 25.48 66.6904 26C66.7504 25.58 66.7504 24.81 66.8604 24.79C68.4504 24.58 70.8104 26.4 71.3204 28.14Z" fill="#F3F3F3"/>
<path d="M14.4203 29.89C13.1203 28.75 11.8303 27.61 10.5303 26.47C12.4203 26.94 13.5703 28.24 14.4203 29.89Z" fill="#E9E9EA"/>
<path d="M17.8605 32.31C16.4405 32.19 15.2205 31.77 14.7505 30.24C15.7905 30.93 16.8205 31.62 17.8605 32.31Z" fill="#E9E9EA"/>
<path d="M19.7505 32.0101C19.4105 32.0901 19.0605 32.1801 18.7205 32.2601C19.3105 31.8701 19.8905 31.4801 20.4805 31.0901C20.2405 31.4001 20.0005 31.7001 19.7505 32.0101Z" fill="#E9E9EA"/>
<path d="M11.5303 30.53C12.5303 31.16 13.5203 31.79 14.5203 32.42C14.5603 32.45 14.6103 32.53 14.6003 32.57C14.5903 32.63 14.5203 32.68 14.4803 32.73C14.2003 32.83 13.9203 32.93 13.6403 33.03C13.4303 33.04 13.2203 33.05 13.0103 33.07C12.5203 32.22 12.0303 31.38 11.5303 30.53Z" fill="#E9E9EA"/>
<path d="M21.2505 48.7901C21.3105 48.7301 21.3805 48.6801 21.4405 48.6201C21.3805 48.6801 21.3305 48.7501 21.2705 48.8101L21.2505 48.7901Z" fill="#1F311F"/>
<path d="M56.4705 73.3499C56.5105 73.8599 56.5505 74.3799 56.6105 75.0799C56.0605 74.8899 55.6505 74.7499 55.2305 74.5999C54.9905 73.9699 54.7105 73.3599 54.5005 72.7199C54.3005 72.0899 54.1805 71.4399 54.4605 70.6599C55.1305 71.5599 55.8005 72.4499 56.4705 73.3499Z" fill="#D6A556"/>
<path d="M60.2904 74.6301C60.0104 75.0501 59.7404 75.4601 59.4604 75.8801C59.4604 75.4601 59.4604 75.0401 59.4504 74.6201C59.7304 74.6201 60.0004 74.6201 60.2804 74.6301H60.2904Z" fill="#D6A556"/>
<path d="M59.4504 74.6099C59.3504 74.4599 59.2404 74.3099 59.1404 74.1599C59.2404 74.3099 59.3504 74.4599 59.4504 74.5999V74.6099Z" fill="#D6A556"/>
<path d="M52.2404 73.3399L51.9204 72.8999C52.0304 73.0499 52.1404 73.1999 52.2404 73.3399Z" fill="#D6A556"/>
<path d="M49.2703 78.84C49.2703 79.26 49.2703 79.68 49.2703 80.1C49.0403 79.66 48.8003 79.22 48.5703 78.78C48.8003 78.8 49.0403 78.81 49.2703 78.83V78.84Z" fill="#D6A556"/>
<path d="M49.2705 80.1201C49.4105 80.4001 49.5505 80.6701 49.6805 80.9501C49.5405 80.6701 49.4005 80.4001 49.2705 80.1201Z" fill="#D6A556"/>
<path d="M49.7004 80.97C49.8304 81.1 49.9704 81.23 50.1004 81.37C49.9704 81.24 49.8304 81.11 49.7004 80.97Z" fill="#D6A556"/>
<path d="M56.9104 76.72C58.7504 77.64 59.0904 79.45 59.8804 80.99C59.6704 81.11 59.4704 81.23 59.2604 81.34L56.9004 76.72H56.9104Z" fill="#D6A556"/>
<path d="M60.5204 83.9401C60.3904 83.3201 60.2504 82.7101 60.1204 82.0901C60.2604 82.0001 60.3904 81.9101 60.5304 81.8101C61.0304 82.6501 61.5304 83.4901 62.0204 84.3301L61.9904 84.3601C61.5004 84.2201 61.0104 84.0801 60.5304 83.9401H60.5204Z" fill="#D6A556"/>
<path d="M62.0205 84.3301C62.3005 84.9001 62.5805 85.4601 62.8605 86.0301L62.8505 86.0401C62.5605 85.4801 62.2805 84.9201 61.9905 84.3601L62.0205 84.3301Z" fill="#D6A556"/>
<path d="M56.9104 76.7301C56.6604 76.4401 56.4204 76.1501 56.1704 75.8501C56.3204 75.7701 56.4704 75.6901 56.6204 75.6001C56.7204 75.9701 56.8204 76.3401 56.9204 76.7101L56.9104 76.7301Z" fill="#D6A556"/>
<path d="M63.2703 86.47C63.1303 86.33 62.9903 86.19 62.8503 86.04L62.8603 86.03C63.0003 86.17 63.1403 86.31 63.2903 86.45L63.2703 86.47Z" fill="#D6A556"/>
<path d="M63.7005 86.89C63.5605 86.75 63.4105 86.6099 63.2705 86.4699L63.2905 86.45C63.4305 86.59 63.5705 86.73 63.7105 86.88L63.7005 86.89Z" fill="#D6A556"/>
<path d="M63.7104 86.8801C63.7704 86.9101 63.8204 86.9501 63.8804 86.9801C63.8204 86.9501 63.7604 86.9201 63.7004 86.8901L63.7104 86.8801Z" fill="#D6A556"/>
<path d="M63.4903 74.1699C63.2603 74.3399 63.0303 74.5099 62.8003 74.6799C62.7203 74.5099 62.6403 74.3299 62.5603 74.1599C62.8703 74.1599 63.1803 74.1599 63.4903 74.1599V74.1699Z" fill="#D6A556"/>
</svg>
