<svg width="67" height="67" viewBox="0 0 67 67" fill="none" xmlns="http://www.w3.org/2000/svg">
<path d="M11.1668 16.75C14.2504 16.75 16.7502 14.2503 16.7502 11.1667C16.7502 8.08312 14.2504 5.58337 11.1668 5.58337C8.08324 5.58337 5.5835 8.08312 5.5835 11.1667C5.5835 14.2503 8.08324 16.75 11.1668 16.75Z" stroke="#1F311F" stroke-width="2" stroke-linecap="round" stroke-linejoin="round"/>
<path d="M39.0835 13.9584L47.4585 5.58337M47.4585 5.58337L55.8335 13.9584M47.4585 5.58337V39.0834M39.0835 27.9167L47.4585 19.5417L55.8335 27.9167M47.4585 39.0834H19.5418L5.5835 61.4167H61.4168L47.4585 39.0834ZM22.3335 39.0834V61.4167M25.1252 39.0834L39.0835 61.4167" stroke="#1F311F" stroke-width="2" stroke-linecap="round" stroke-linejoin="round"/>
</svg>
