<svg width="64" height="56" viewBox="0 0 64 56" fill="none" xmlns="http://www.w3.org/2000/svg">
<path d="M12.9375 53.6875C12.9375 54.1078 12.8129 54.5186 12.5794 54.8681C12.3459 55.2175 12.014 55.4899 11.6257 55.6507C11.2374 55.8116 10.8101 55.8536 10.3979 55.7717C9.98572 55.6897 9.60709 55.4873 9.3099 55.1901C9.01271 54.8929 8.81033 54.5143 8.72833 54.1021C8.64634 53.6898 8.68842 53.2626 8.84926 52.8743C9.01009 52.486 9.28246 52.1541 9.63191 51.9206C9.98137 51.6871 10.3922 51.5625 10.8125 51.5625C11.3761 51.5625 11.9166 51.7864 12.3151 52.1849C12.7136 52.5834 12.9375 53.1239 12.9375 53.6875ZM19.3125 43.0625C18.8922 43.0625 18.4814 43.1871 18.1319 43.4206C17.7825 43.6541 17.5101 43.986 17.3493 44.3743C17.1884 44.7626 17.1463 45.1898 17.2283 45.6021C17.3103 46.0143 17.5127 46.3929 17.8099 46.6901C18.1071 46.9873 18.4857 47.1897 18.8979 47.2717C19.3101 47.3536 19.7374 47.3116 20.1257 47.1507C20.514 46.9899 20.8459 46.7175 21.0794 46.3681C21.3129 46.0186 21.4375 45.6078 21.4375 45.1875C21.4375 44.6239 21.2136 44.0834 20.8151 43.6849C20.4166 43.2864 19.8761 43.0625 19.3125 43.0625ZM2.3125 43.0625C1.89222 43.0625 1.48137 43.1871 1.13191 43.4206C0.78246 43.6541 0.510093 43.986 0.349257 44.3743C0.188421 44.7626 0.146339 45.1898 0.228332 45.6021C0.310326 46.0143 0.512712 46.3929 0.809899 46.6901C1.10709 46.9873 1.48572 47.1897 1.89793 47.2717C2.31014 47.3536 2.73741 47.3116 3.1257 47.1507C3.514 46.9899 3.84588 46.7175 4.07937 46.3681C4.31287 46.0186 4.4375 45.6078 4.4375 45.1875C4.4375 44.6239 4.21362 44.0834 3.8151 43.6849C3.41659 43.2864 2.87609 43.0625 2.3125 43.0625ZM10.8125 34.5625C10.3922 34.5625 9.98137 34.6871 9.63191 34.9206C9.28246 35.1541 9.01009 35.486 8.84926 35.8743C8.68842 36.2626 8.64634 36.6898 8.72833 37.1021C8.81033 37.5143 9.01271 37.8929 9.3099 38.1901C9.60709 38.4873 9.98572 38.6897 10.3979 38.7717C10.8101 38.8536 11.2374 38.8116 11.6257 38.6507C12.014 38.4899 12.3459 38.2175 12.5794 37.8681C12.8129 37.5186 12.9375 37.1078 12.9375 36.6875C12.9375 36.1239 12.7136 35.5834 12.3151 35.1849C11.9166 34.7864 11.3761 34.5625 10.8125 34.5625ZM63.9375 1.62498C63.9375 1.90678 63.8256 2.17703 63.6263 2.37629C63.427 2.57554 63.1568 2.68748 62.875 2.68748H55.2542C54.9733 2.68797 54.7039 2.79971 54.5052 2.99827L46.8658 10.6376L41.0566 44.6562C40.9597 45.2331 40.706 45.7721 40.3232 46.2144C39.9405 46.6567 39.4434 46.9851 38.8864 47.1637C38.5694 47.2638 38.2387 47.3139 37.9062 47.3125C37.063 47.3103 36.255 46.9741 35.6591 46.3775L9.62781 20.3462C9.21253 19.9332 8.91908 19.4137 8.77969 18.8448C8.64029 18.2759 8.66035 17.6796 8.83764 17.1214C9.01494 16.5631 9.34263 16.0645 9.78473 15.6803C10.2268 15.2961 10.7662 15.0412 11.3438 14.9434L45.3438 9.1342L52.9831 1.49483C53.2806 1.19617 53.6347 0.959883 54.0247 0.79979C54.4147 0.639697 54.8327 0.55902 55.2542 0.562485H62.875C63.1568 0.562485 63.427 0.674427 63.6263 0.873684C63.8256 1.07294 63.9375 1.34319 63.9375 1.62498ZM44.5761 11.4239L11.7077 17.0312C11.5144 17.0624 11.3334 17.1463 11.1848 17.2738C11.0362 17.4013 10.9257 17.5673 10.8655 17.7536C10.8053 17.94 10.7978 18.1393 10.8438 18.3296C10.8897 18.5199 10.9874 18.6938 11.1259 18.8322L37.1572 44.8634C37.2952 45.0019 37.4687 45.0997 37.6586 45.1459C37.8486 45.1921 38.0476 45.185 38.2338 45.1255C38.4199 45.0659 38.5861 44.9561 38.7139 44.8081C38.8417 44.6602 38.9262 44.4799 38.9581 44.287L44.5761 11.4239Z" fill="#2F3A10"/>
</svg>
