<svg width="68" height="68" viewBox="0 0 68 68" fill="none" xmlns="http://www.w3.org/2000/svg">
<path d="M23.375 38.6192C23.6568 38.6192 23.927 38.5073 24.1263 38.308C24.3256 38.1088 24.4375 37.8385 24.4375 37.5567V32.9375H43.5625V38.0614C43.5625 38.3432 43.6744 38.6134 43.8737 38.8127C44.073 39.012 44.3432 39.1239 44.625 39.1239C44.9068 39.1239 45.177 39.012 45.3763 38.8127C45.5756 38.6134 45.6875 38.3432 45.6875 38.0614V8.5C45.6875 8.21821 45.5756 7.94796 45.3763 7.7487C45.177 7.54944 44.9068 7.4375 44.625 7.4375C44.3432 7.4375 44.073 7.54944 43.8737 7.7487C43.6744 7.94796 43.5625 8.21821 43.5625 8.5V13.8125H24.4375V8.5C24.4375 8.21821 24.3256 7.94796 24.1263 7.7487C23.927 7.54944 23.6568 7.4375 23.375 7.4375C23.0932 7.4375 22.823 7.54944 22.6237 7.7487C22.4244 7.94796 22.3125 8.21821 22.3125 8.5V37.5567C22.3125 37.8385 22.4244 38.1088 22.6237 38.308C22.823 38.5073 23.0932 38.6192 23.375 38.6192ZM24.4375 30.8125V24.4375H43.5625V30.8125H24.4375ZM43.5625 15.9375V22.3125H24.4375V15.9375H43.5625ZM7.4375 44.625C7.4375 44.3432 7.54944 44.073 7.7487 43.8737C7.94796 43.6744 8.21821 43.5625 8.5 43.5625C12.0089 43.5625 13.8444 44.787 15.4647 45.8655C17.0319 46.9094 18.3866 47.8125 21.25 47.8125C24.1134 47.8125 25.4681 46.9094 27.0353 45.8655C28.653 44.787 30.4884 43.5625 33.9973 43.5625C37.5063 43.5625 39.3444 44.787 40.962 45.8655C42.5292 46.9094 43.8839 47.8125 46.75 47.8125C49.6161 47.8125 50.9681 46.9094 52.5353 45.8655C54.1556 44.787 55.9884 43.5625 59.5 43.5625C59.7818 43.5625 60.052 43.6744 60.2513 43.8737C60.4506 44.073 60.5625 44.3432 60.5625 44.625C60.5625 44.9068 60.4506 45.177 60.2513 45.3763C60.052 45.5756 59.7818 45.6875 59.5 45.6875C56.6339 45.6875 55.2819 46.5906 53.7147 47.6345C52.0944 48.713 50.2616 49.9375 46.75 49.9375C43.2384 49.9375 41.403 48.713 39.7853 47.6345C38.2181 46.5906 36.8634 45.6875 33.9973 45.6875C31.1313 45.6875 29.7792 46.5906 28.212 47.6345C26.5944 48.713 24.7589 49.9375 21.25 49.9375C17.7411 49.9375 15.9056 48.713 14.2853 47.6345C12.7181 46.5906 11.3661 45.6875 8.5 45.6875C8.21821 45.6875 7.94796 45.5756 7.7487 45.3763C7.54944 45.177 7.4375 44.9068 7.4375 44.625ZM60.5625 55.25C60.5625 55.5318 60.4506 55.802 60.2513 56.0013C60.052 56.2006 59.7818 56.3125 59.5 56.3125C56.6339 56.3125 55.2819 57.2156 53.7147 58.2595C52.0944 59.338 50.2616 60.5625 46.75 60.5625C43.2384 60.5625 41.403 59.338 39.7853 58.2595C38.2181 57.2156 36.8634 56.3125 33.9973 56.3125C31.1313 56.3125 29.7792 57.2156 28.212 58.2595C26.5944 59.338 24.7589 60.5625 21.25 60.5625C17.7411 60.5625 15.9056 59.338 14.2853 58.2595C12.7181 57.2156 11.3661 56.3125 8.5 56.3125C8.21821 56.3125 7.94796 56.2006 7.7487 56.0013C7.54944 55.802 7.4375 55.5318 7.4375 55.25C7.4375 54.9682 7.54944 54.698 7.7487 54.4987C7.94796 54.2994 8.21821 54.1875 8.5 54.1875C12.0089 54.1875 13.8444 55.412 15.4647 56.4905C17.0319 57.5344 18.3866 58.4375 21.25 58.4375C24.1134 58.4375 25.4681 57.5344 27.0353 56.4905C28.653 55.412 30.4884 54.1875 33.9973 54.1875C37.5063 54.1875 39.3444 55.412 40.962 56.4905C42.5292 57.5344 43.8839 58.4375 46.75 58.4375C49.6161 58.4375 50.9681 57.5344 52.5353 56.4905C54.1556 55.412 55.9884 54.1875 59.5 54.1875C59.7818 54.1875 60.052 54.2994 60.2513 54.4987C60.4506 54.698 60.5625 54.9682 60.5625 55.25Z" fill="#1F311F"/>
</svg>
