<svg width="34" height="38" viewBox="0 0 34 38" fill="none" xmlns="http://www.w3.org/2000/svg">
<path d="M4.71963 22.6776L6.08812 34.7531C6.14337 35.0768 6.28646 35.347 6.51737 35.5638C6.74971 35.7805 7.04296 35.8889 7.39712 35.8889H26.6432C26.9974 35.8889 27.2907 35.7805 27.523 35.5638C27.7553 35.347 27.8984 35.0768 27.9522 34.7531L29.3335 22.1667H28.7321C27.4415 22.1667 26.2445 22.0703 25.1409 21.8774C24.0401 21.6832 22.547 21.318 20.6614 20.7818C19.7646 20.5087 18.8395 20.3194 17.8861 20.2139C16.9327 20.1083 15.9729 20.0556 15.0068 20.0556C13.1722 20.0556 11.3935 20.2709 9.67087 20.7016C7.94821 21.1322 6.29779 21.7909 4.71963 22.6776ZM4.43487 20.4524C6.09946 19.6164 7.81858 18.9901 9.59225 18.5736C11.3673 18.1542 13.1899 17.9444 15.0599 17.9444C16.094 17.9444 17.1268 18.0078 18.1581 18.1344C19.1895 18.2611 20.2052 18.4652 21.2054 18.7467C23.0853 19.2674 24.5147 19.6157 25.4936 19.7917C26.4725 19.9676 27.535 20.0556 28.6811 20.0556H29.5651L31.5881 2.11111H2.36937L4.43487 20.4524ZM7.38437 38C6.47771 38 5.70067 37.7157 5.05325 37.1471C4.40583 36.5785 4.04246 35.8572 3.96312 34.9832L0 0H34L30.0772 34.9832C29.9979 35.8572 29.6345 36.5785 28.9871 37.1471C28.3411 37.7157 27.5641 38 26.656 38H7.38437Z" fill="#2F3A10"/>
</svg>
